<svg width="263" height="347" viewBox="0 0 263 347" fill="none" xmlns="http://www.w3.org/2000/svg">
<path fill-rule="evenodd" clip-rule="evenodd" d="M77.6823 154.767C75.7277 155.86 74.1055 156.608 72.5771 157.118L70.3292 157.868L72.4433 158.938C73.8792 159.664 75.2446 160.591 76.6175 161.771L77.6771 162.682L78.1885 161.383C78.8601 159.678 79.1869 157.737 79.1598 155.617L79.1383 153.952L77.6823 154.767ZM171.572 160.275C169.743 163.57 167.535 166.814 165.399 169.951C160.686 176.875 155.812 184.035 154.312 192.597C154.137 193.661 154.061 197.409 154.061 197.409L155.458 196.841C160.124 194.945 165.073 193.534 169.86 192.169C171.71 191.642 173.623 191.097 175.498 190.53C176.262 190.326 177.021 190.087 177.756 189.857C179.538 189.297 181.222 188.769 182.992 188.679L183.531 188.651L183.801 188.185C186.24 183.968 184.411 179.949 182.316 176.193C181.058 173.455 179.44 170.882 177.874 168.394C176.252 165.815 174.574 163.148 173.349 160.357L172.544 158.525L171.572 160.275ZM81.5491 195.207C84.322 198.107 86.8977 201.055 89.2047 203.967L90.9565 203.163C90.1097 198.862 87.4807 195.831 82.6825 193.626L81.5491 195.207ZM174.313 260.009C174.036 260.009 173.775 260.116 173.58 260.311C173.382 260.509 173.274 260.776 173.274 261.062L174.313 261.059V260.009ZM58.9262 331.728C57.2971 328.936 57.0577 324.554 59.4993 322.178C58.6781 317.047 60.2913 311.313 63.8643 307.227L63.8725 307.24C69.1775 299.305 69.5673 296.478 65.6913 287.608C58.7644 287.344 51.6293 287.265 44.8658 285.649L45.1188 284.139C44.8684 284.073 43.5896 283.737 43.315 283.667C43.3517 283.948 43.5423 285.23 43.5377 285.486C43.2218 285.831 42.4581 286.152 42.3161 285.473C38.0613 267.309 34.2535 249.506 30.116 231.37C25.7856 213.065 17.0771 183.788 38.394 173.7L37.9539 171.824C36.7767 171.824 36.3037 170.543 35.7641 168.733C33.3589 162.258 38.0357 155.909 42.4092 151.904C48.3871 145.927 53.902 139.29 59.237 132.875C74.4553 114.396 95.1619 89.7363 121.631 93.9257L121.542 95.0142C125.682 95.5342 130.005 96.6276 134.198 95.866C148.511 93.3894 164.084 98.9921 172.887 110.496L173.211 108.352C173.241 108.149 173.313 107.962 173.634 107.962C174.053 107.947 174.275 108.29 174.43 108.606C189.625 114.605 195.919 134.13 200.774 147.513C201.394 149.775 201.219 150.444 201.165 150.577L200.284 151.102C209.441 163.271 214.473 177.907 218.79 191.785C220.217 195.484 220.365 198.048 217.983 200.286C233.695 209.716 246.024 224.413 239.053 241.168C229.955 257.472 205.864 267.817 187.77 277.181C180.584 281.069 170.133 283.14 163.521 289.508C163.079 290.16 162.445 290.795 162.061 290.743C158.992 291.197 154.425 272.05 155.119 270.517C151.88 271.674 148.276 271.613 144.888 272.216C145.191 272.883 146.185 273.785 145.442 274.526C145.492 276.775 145.146 279.205 144.65 281.497C148.717 280.846 148.624 282.977 144.712 281.849C144.606 282.842 144.335 285.374 144.231 286.334C145.399 285.821 147.723 285.461 148.537 286.263C148.204 287.332 145.324 286.326 144.215 286.642C143.566 291.449 143.354 296.175 142.899 300.969C146.361 304.263 151.769 305.041 154.858 308.604C157.476 311.316 157.098 315.866 154.027 318.048C155.908 320.251 154.403 323.909 151.656 324.507C147.915 325.379 144.004 324.173 140.315 323.159C134.182 321.142 127.76 317.997 120.682 313.546C117.881 311.804 115.796 309.067 114.805 305.836C107.624 283.729 105.705 268.707 109.094 261.167C111.029 259.708 113.185 260.609 114.971 259.811C115.822 259.431 116.589 258.921 117.208 257.109C107.891 256.195 94.3103 257.893 86.8422 253.434L87.1049 252.875C86.4153 252.436 84.9001 250.596 84.3236 250.005C85.3627 262.49 86.1979 275.298 86.6113 287.738C87.9812 290.04 89.1444 292.422 90.4214 295.08C91.3096 295.951 92.8635 297.444 91.9517 298.432C91.9516 298.432 99.6197 316.368 101.963 325.434C104.194 325.528 105.099 329.303 105.014 331.81C104.674 336.373 98.8117 336.857 93.6721 337.304C90.1554 337.673 86.5395 337.864 82.9773 337.864C76.5412 337.869 60.4487 337.426 58.9262 331.728Z" fill="white"/>
<path fill-rule="evenodd" clip-rule="evenodd" d="M150.161 269.626C147.63 270.221 145.078 270.714 142.532 271.245C141.878 271.531 138.593 271.578 139.192 272.648C139.189 272.651 139.187 272.654 139.184 272.656C139.853 273.17 140.758 272.879 141.564 272.946C135.302 275.505 131.008 270.232 132.16 264.212C132.324 263.138 132.536 261.914 133 260.932C133.246 260.492 135.012 257.098 135.323 258.256C135.079 258.402 135.77 258.463 135.674 257.938C157.177 257.7 151.882 247.833 153.923 268.785C152.658 268.881 151.395 269.336 150.161 269.626ZM144.935 278.774C144.817 279.298 144.687 279.834 144.534 280.353C140.327 281.082 137.233 283.212 143.894 282.811C143.702 283.596 143.522 284.384 143.351 285.175C142.527 285.491 139.533 286.493 139.686 287.45C140.724 287.682 141.857 287.253 142.923 287.298C142.231 291.878 141.219 296.564 141.311 301.206C141.299 302.735 143.638 303.024 143.938 301.508C146.771 305.66 155.316 307.282 154.505 313.349C154.053 314.589 153.461 315.434 152.19 315.479C151.288 315.712 150.28 316.775 150.799 317.725L150.776 317.733C150.874 318.592 151.858 318.902 152.502 319.149C153.144 319.647 153.167 320.45 152.658 321.2C150.167 323.819 143.065 321.209 139.977 320.348C133.711 318.176 127.788 315.032 122.138 311.591C119.489 310.069 117.669 307.518 116.806 304.619C112.922 290.82 107.883 276.177 110.168 261.743C111.157 260.337 113.301 260.593 114.696 259.849C112.389 268.344 116.213 277.167 117.769 285.544C120.981 300.627 123.512 312.657 140.163 317.69C142.41 318.16 147.253 319.859 148.92 317.976C149.45 317.469 149.398 316.622 148.92 316.106C148.077 314.981 146.683 315.116 145.425 314.988C142.166 314.582 138.977 313.594 136.07 312.067C129.608 308.881 125.117 302.738 123.975 295.656C122.036 287.682 120.295 279.643 118.03 271.752C116.48 266.385 113.948 261.713 119.554 257.76C123.348 257.872 127.146 257.976 130.942 257.989C130.007 259.556 128.973 261.532 129.5 263.39C127.185 268.627 130.174 275.606 135.94 276.942C139.131 277.627 142.443 276.811 145.388 275.465C145.342 276.571 145.201 277.641 144.935 278.774ZM85.8054 253.123C85.789 252.909 85.7725 252.693 85.7558 252.477C86.0486 252.798 86.384 253.087 86.7444 253.347C86.4338 253.268 86.1228 253.187 85.8054 253.123ZM86.3628 288.488C86.6667 289.581 87.0061 290.664 87.3746 291.738C81.8989 290.159 74.5978 288.848 70.0465 293.134C69.3967 291.386 68.6217 289.729 67.5351 288.233C73.0763 287.605 78.6591 287.951 84.1988 287.389C84.6079 288.161 85.5435 288.62 86.3628 288.488ZM69.4239 301.098C69.4438 301.042 69.4653 300.986 69.4851 300.931C69.7973 300.892 70.1073 300.855 70.4176 300.814C70.0853 300.905 69.7546 300.999 69.4239 301.098ZM88.7165 295.546C88.9231 296.251 89.4694 296.686 90.0207 296.733C90.5662 297.327 90.7822 298.225 91.5105 298.632C94.2695 307.737 97.9799 316.583 99.8496 325.948C87.0625 330.078 75.0773 330.314 62.2092 326.15C62.5184 325.847 62.6639 325.44 62.6705 324.988C62.6786 324.996 62.6885 325.003 62.6984 325.011C60.9582 316.487 61.9397 313.804 66.3838 306.517C72.3548 306.26 78.3437 306.039 84.3204 306.218C85.7237 306.382 88.4475 305.231 87.2202 303.557C85.7802 301.981 83.5167 302.408 81.5825 302.511C77.0692 302.737 72.5659 303.4 68.2651 304.815C68.7171 303.857 68.8574 302.717 69.2208 301.701C73.3901 301.229 77.6007 301.119 81.7826 301.466C83.3416 301.612 85.1784 302.359 86.5273 301.274C88.9372 297.092 71.8765 299.385 69.9152 299.852C70.561 298.339 71.2498 296.769 70.955 295.072C75.254 291.695 84.2665 292.862 88.7165 295.546ZM101.366 328.912C101.71 329.152 102.15 329.141 102.522 328.976C103.383 331.054 102.785 333.179 100.402 333.667C96.0593 334.683 91.5328 334.873 87.0917 335.133C82.3649 335.318 77.6215 335.181 72.9131 334.734C65.3572 334.508 58.644 332.387 58.9525 323.542C59.2549 324.723 59.4523 326.534 60.9728 326.609C72.839 332.86 88.2457 333.454 100.49 328.021C100.702 328.358 100.981 328.643 101.366 328.912ZM44.7259 284.74C44.7242 284.715 44.7242 284.694 44.7207 284.669C44.8484 284.702 44.9763 284.74 45.106 284.771C44.9788 284.759 44.8532 284.748 44.7259 284.74ZM78.3885 155.3C78.4118 157.128 78.1595 158.981 77.4856 160.692C76.145 159.54 74.6967 158.528 73.1128 157.727C74.9526 157.112 76.697 156.246 78.3885 155.3ZM40.2021 171.986C40.45 171.55 39.3471 172.083 39.1754 172.105C39.8941 171.529 39.7477 170.305 38.9144 169.977C34.9625 163.104 39.7564 156.863 44.8234 152.296C53.471 143.765 60.5095 133.828 68.5497 124.75C78.6926 126.437 88.49 130.771 96.057 137.751C88.3073 144.883 80.2237 152.378 70.4709 156.641C69.5643 156.202 68.3585 156.322 68.057 157.303C66.9379 157.506 65.822 157.79 64.7057 157.972C64.6494 157.98 64.6576 158.063 64.7057 158.076C65.803 158.453 66.9339 158.704 68.1064 158.63C79.3855 162.549 83.6047 174.657 91.6293 182.565C98.1811 188.284 107.578 192.504 108.524 202.233C110.102 205.379 111.241 208.661 110.823 212.184C110.932 214.935 109.97 217.664 110.756 220.332C109.102 226.642 107.205 233.207 102.467 237.965C102.333 237.932 102.194 237.94 102.065 238.003C102.406 235.894 102.771 233.789 103.132 231.684C104.497 228.899 105.37 225.904 105.942 222.864C106.175 221.333 103.919 221.026 103.824 222.586C102.286 228.054 100.422 234.535 95.0734 237.716C96.0464 234.041 97.2209 230.409 98.8413 226.966C99.4613 225.82 100.047 224.655 100.62 223.486C101.239 222.22 99.3916 221.107 98.7057 222.37C96.2076 227.119 93.8516 232.498 89.0935 235.34C90.5955 230.386 92.5743 225.533 94.4498 220.701C94.6584 220.205 94.2251 219.618 93.7574 219.485C93.187 219.322 92.7439 219.686 92.5373 220.176C91.7844 221.917 91.213 223.933 89.9978 225.441C89.5091 227.112 86.0984 229.696 87.832 225.863C89.5175 220.933 90.6619 215.674 93.081 211.076C93.7463 202.735 92.4832 197.517 84.4226 193.656C83.254 193.072 81.8041 192.326 80.4021 192.075C76.4836 188.186 72.2993 184.573 67.7989 181.294C58.68 174.42 44.8165 168.279 34.3611 175.949C36.0392 174.296 37.9869 172.929 40.2021 171.986ZM79.9707 112.616C90.8036 102.074 104.916 93.6698 120.463 93.6667C120.324 93.7129 120.299 93.881 120.382 93.9898C108.587 143.514 165.22 162.766 175.509 108.428C186.312 115.456 194.503 133.752 198.241 145.842C188.556 146.591 179.842 152.691 174.2 160.323C173.714 159.498 173.608 158.518 174.921 158.758C175.221 158.472 173.849 158.635 173.734 158.869C176.345 153.31 179.031 147.555 180.555 141.488C180.6 141.335 180.383 141.249 180.301 141.381C178.011 145.02 175.604 148.579 173.37 152.252C165.813 167.005 150.729 179.967 151.37 197.586C151.367 197.588 151.365 197.589 151.363 197.591C151.656 198.101 151.539 198.81 151.985 199.256C149.661 209.516 143.867 220 134.457 225.283C127.348 228.55 119.611 224.764 113.475 221.061C113.248 218.894 113.02 216.729 112.792 214.564C113.909 214.284 113.767 212.245 113.8 211.349C114.035 207.574 113.056 203.87 111.044 200.636C110.116 195.834 107.513 191.567 103.75 188.45C101.237 186.308 98.4444 184.53 95.8853 182.449C89.0904 176.945 85.4501 168.766 79.4433 162.54C80.1671 159.928 80.3201 157.313 79.5458 154.627C83.8391 151.864 107.235 136.641 102.892 131.314C102.264 130.382 100.9 130.547 100.541 131.62C100.088 133.079 99.4163 134.426 98.3041 135.496C90.4384 128.381 79.9719 123.66 69.2324 123.968C72.6714 120.048 76.2244 116.222 79.9707 112.616ZM121.396 94.5555C128.107 97.8822 136.2 95.5808 143.358 95.8726C154.368 96.3073 165.05 101.708 171.874 110.341C169.203 122.109 162.834 135.491 149.876 138.192C137.033 140.494 125.682 129.517 122.616 117.775C120.56 110.241 120.518 102.275 121.396 94.5555ZM213.813 178.618C214.798 181.272 215.731 183.944 216.637 186.627C217.549 189.359 218.623 192.071 219.37 194.854C219.06 196.185 218.318 197.249 217.576 198.367C212.033 206.684 200.759 205.907 192.563 209.945C191.274 210.555 189.715 211.315 188.585 212.386C187.065 212.951 186.633 214.753 186.875 216.218C188.208 223.628 189.295 230.961 189.617 238.476C189.721 240.55 189.787 242.716 189.138 244.696C186.772 242.797 185.401 231.851 185.337 228.618C185.307 227.805 184.282 227.752 183.997 228.436C180.516 237.936 182.328 248.373 181.896 258.281C176.967 251.128 176.953 242.106 176.685 233.751C176.627 232.414 174.577 232.399 174.589 233.751C174.293 242.544 175.567 252.106 174.605 260.666C170.93 251.637 169.899 241.501 170.85 231.829C169.095 236.931 169.157 243.927 169.741 249.654C168.018 249.845 169.17 254.751 168.648 256.156C158.929 233.888 168.963 220.835 179.645 202.034C181.877 196.584 188.02 186.813 186.262 181.262C185.634 179.31 184.52 177.561 183.473 175.815C180.499 170.894 177.423 166.035 174.569 161.045C175.075 160.646 175.569 160.234 176.057 159.813C182.588 154 188.547 149.466 197.75 148.811C204.906 157.709 209.895 167.95 213.813 178.618ZM174.568 260.755C174.506 260.934 174.412 260.582 174.596 260.69C174.587 260.711 174.576 260.732 174.568 260.755ZM183.136 246.143C183.179 242.496 183.133 238.812 183.635 235.2C183.438 238.847 183.301 242.496 183.136 246.143ZM179.661 188.02C171.531 190.492 163.215 192.46 155.305 195.596C155.718 181.971 166.464 171.798 172.661 160.425C175.105 165.988 179.116 170.775 181.652 176.31C183.598 179.797 185.374 183.539 183.163 187.362C182.006 187.32 180.716 187.751 179.661 188.02ZM90.1144 202.899C87.6907 199.881 85.1546 196.973 82.4895 194.195C86.4721 196.026 89.3321 198.589 90.2054 203.024C90.1773 202.983 90.1473 202.942 90.1144 202.899ZM134.292 257.973C133.995 258.193 133.876 258.302 133.66 258.469C133.869 258.313 134.052 258.05 134.292 257.973ZM240.238 221.799C236.44 212.146 228.405 205.023 219.715 199.719C221.897 197.183 220.988 193.929 219.942 191.112C215.585 177.133 210.674 163.001 201.948 151.067C203.781 149.975 199.963 141.569 199.413 139.545C194.734 128.188 187.718 111.823 175.329 107.467C174.681 106.337 172.692 106.277 172.451 107.875C163.136 96.9991 148.269 92.2508 134.248 94.5625C130.051 95.2942 126.029 94.2085 121.884 93.7031C123.929 93.7872 125.962 94.0328 127.964 94.4713C128.121 94.5059 128.181 94.2867 128.031 94.2339C115.361 89.4888 101.179 93.3045 90.2543 100.551C70.718 113.721 58.3689 134.421 41.9552 150.851C37.2795 155.188 32.8092 161.361 34.8379 168.041C35.3913 169.76 35.8987 172.484 38.1756 172.484C15.8833 183.485 25.0951 212.287 29.3705 231.26C33.4836 249.288 37.3546 267.373 41.5731 285.374C41.8955 286.713 43.3407 286.792 44.1622 286.11C51.0071 287.863 58.209 287.986 65.2435 288.244C68.8381 296.786 68.1919 298.773 63.2612 306.373C63.3372 306.36 63.4265 306.35 63.5356 306.347C63.4197 306.354 63.2894 306.39 63.1934 306.467C63.2137 306.439 63.2301 306.423 63.2612 306.373C62.9107 306.434 62.9123 306.573 62.9983 306.601C63.0577 306.55 63.119 306.503 63.185 306.464C63.1816 306.474 63.1816 306.479 63.1917 306.469C63.1403 306.592 63.0529 306.619 62.9983 306.601C59.6684 310.739 57.9566 316.248 58.6764 321.531C56.2385 324.262 56.5136 328.829 58.2762 331.872C60.4623 336.112 65.3147 337.257 69.7042 337.64C75.092 338.346 80.5315 338.633 85.9642 338.486C88.649 338.414 91.3289 338.239 94.0008 337.959C98.5742 337.465 105.535 337.427 106.223 331.572C106.376 329.394 105.448 324.836 102.993 324.274C100.685 315.443 97.8599 306.463 92.6532 298.854C94.2146 297.52 92.6261 295.225 91.4548 294.151C90.3348 291.823 89.2061 289.498 87.8984 287.267C88.2603 285.924 87.3597 285.092 87.5383 283.762C87.5801 273.648 86.5367 263.569 85.8334 253.484C92.9961 258.497 107.161 256.97 115.951 257.656C114.589 260.703 110.82 257.692 108.482 260.278C103.418 271.178 110.409 294.502 114.078 305.796C115.125 309.21 117.329 312.159 120.374 314.053C126.606 317.972 133.236 321.473 140.248 323.777C144.049 324.828 148.174 326.072 152.112 325.138C155.168 324.399 157.166 320.73 155.513 317.914C158.589 315.154 158.522 310.567 155.835 307.634C152.76 304.027 147.619 303.231 144.155 300.226C144.557 295.892 144.766 291.575 145.316 287.26C146.591 287.198 147.864 287.741 149.06 287.152C151.344 284.955 147.445 284.044 145.6 284.614C145.668 283.985 145.734 283.357 145.802 282.727C149.844 283.627 149.979 279.723 146.101 280.066C146.465 278.225 146.662 276.353 146.656 274.494C147.047 273.909 147.022 273.195 146.701 272.646C149.227 272.263 151.923 272.246 154.371 271.512C154.424 274.686 159.245 297.462 164.464 289.858C167.262 286.905 171.077 285.149 174.812 283.635C179.38 281.756 183.922 279.816 188.407 277.748C201.746 271.593 214.649 264.426 226.56 255.817C238.578 248.102 246.287 236.038 240.238 221.799Z" fill="black"/>
<path fill-rule="evenodd" clip-rule="evenodd" d="M177.88 73.3389C176.77 59.8502 173.392 47.9034 157.518 47.394C150.354 47.4578 143.042 48.9756 136.454 51.7837C120.443 59.7901 115.362 89.0455 129.469 100.822C129.385 100.87 129.365 101.007 129.464 101.074C132.378 103.029 135.618 104.638 138.862 105.99C147.505 109.633 157.678 111.216 166.492 107.264C179.943 101.556 180.145 85.6731 177.88 73.3389Z" fill="white"/>
<path fill-rule="evenodd" clip-rule="evenodd" d="M204.355 67.0518C204.908 66.5553 205.32 65.904 205.529 65.1738C205.72 64.508 205.733 63.781 205.53 63.1168C205.314 62.4043 204.847 61.8369 204.952 61.0953C204.963 61.0228 204.978 60.947 205 60.8713C205.404 59.4752 206.398 58.4677 206.043 56.9202C205.943 56.4833 205.754 56.09 205.49 55.7805C205.519 55.4452 205.545 55.1066 205.566 54.7681C206.15 53.4059 206.129 51.7874 205.506 50.4462C205.43 49.7595 205.315 49.0792 205.154 48.4102C205.228 47.8186 205.125 47.1673 204.934 46.6499C204.599 45.7394 204.185 44.8421 203.735 43.9597C203.788 43.7184 203.765 43.4634 203.631 43.2366C203.388 42.8244 203.067 42.462 202.739 42.1078C202.507 41.6946 202.274 41.2849 202.042 40.8804C201.935 40.6945 201.816 40.4884 201.686 40.2699C202.042 39.6112 202.232 38.9693 201.855 38.1947C201.714 37.9038 201.325 37.6892 201.005 37.7082C200.655 37.729 200.302 37.7447 199.947 37.758C199.283 36.9588 198.531 36.2413 197.725 35.8283C196.909 35.1383 196.081 34.4613 195.276 33.7697C195.048 33.573 194.819 33.3764 194.591 33.1797C194.589 33.1749 194.587 33.1684 194.586 33.1636C194.418 32.5526 194.229 31.9497 194.039 31.3436C193.921 30.968 193.886 30.5746 193.519 30.3699C192.753 29.9427 191.574 29.875 190.695 29.8025C190.608 29.7251 190.52 29.6493 190.433 29.572C190.832 28.5112 190.761 27.3844 190.259 26.3221C190.087 25.961 189.492 25.7982 189.166 26.0368C188.413 26.5881 187.519 26.7831 186.635 26.7025C185.335 25.7063 180.093 21.2013 179.283 20.7257C179.273 20.7087 179.265 20.6916 179.254 20.6746C178.799 19.9495 178.246 19.3673 177.624 18.9004C177.536 18.8081 177.447 18.7155 177.358 18.623C177.436 18.0702 177.642 17.5365 177.972 17.09C178.008 17.0384 178.048 16.9884 178.089 16.94C178.667 16.2533 177.961 15.3699 177.153 15.7294C177.095 15.7552 177.036 15.781 176.978 15.8084C176.357 16.0847 175.669 16.385 174.953 16.6384C174.691 16.5406 174.424 16.4519 174.181 16.3542L171.573 15.3085C171.143 15.1363 170.689 14.9904 170.274 14.7881C170.129 13.8275 169.164 13.1975 168.161 13.2304C168.219 13.046 168.306 12.8669 168.427 12.6972C168.463 12.6472 168.502 12.5988 168.542 12.5521C169.058 11.954 168.369 10.8449 167.632 11.3769C167.58 11.414 167.527 11.4511 167.475 11.4881C167.27 11.6314 167.061 11.7659 166.849 11.8961C166.51 11.7485 166.128 11.7148 165.728 11.871C164.842 12.2168 164.026 12.5684 163.246 13.1103C163.215 13.1324 163.182 13.1509 163.15 13.1717C162.763 12.7055 162.148 12.3938 161.595 12.3972C161.584 12.3972 161.575 12.397 161.565 12.3968C161.151 11.7683 160.393 11.403 159.661 11.4918C159.71 10.5899 158.805 9.78501 157.981 9.68716C157.018 9.57303 156.15 10.1306 155.861 11.0675C155.78 11.3284 155.7 11.5894 155.619 11.8504C154.872 11.4739 154.083 11.1855 153.258 11.0416C151.381 10.7137 149.546 11.0629 147.737 11.5826C147.556 11.6345 147.375 11.6879 147.195 11.7411C146.937 11.443 146.695 11.1378 146.464 10.853C146.064 10.3613 145.106 10.7547 145.17 11.3866C145.215 11.8226 145.038 12.1363 144.752 12.3593C144.438 12.4051 144.134 12.4189 143.676 12.4097C143.071 12.3975 142.796 12.3786 142.163 12.1326C141.869 12.0182 141.501 11.7172 141.33 11.447C140.671 10.411 138.998 10.1319 138.201 11.1198C137.362 10.7537 136.304 11.2586 135.838 11.9704C135.594 12.3427 135.086 12.5508 134.446 12.7297C133.966 12.8638 133.475 12.9654 132.982 13.0542C132.762 12.7568 132.299 12.5574 131.959 12.8068C131.729 12.9762 131.506 13.1501 131.286 13.3284C129.587 13.5619 127.897 13.5702 126.277 12.9096C124.906 12.3502 123.647 13.878 123.873 15.1605C123.476 15.3667 123.045 15.5039 122.653 15.7199C121.797 16.1916 121.094 16.9371 120.665 17.8131C120.589 17.97 120.519 18.1292 120.453 18.2893C120.133 18.549 119.817 18.8156 119.508 19.0969C118.994 18.8342 118.482 18.5714 117.968 18.3087C117.583 18.112 116.935 18.249 116.859 18.7584C116.734 19.5967 116.432 20.2915 116.001 20.8734C114.598 21.6085 113.248 22.4339 111.956 23.3511C110.471 23.8154 108.892 24.0862 107.594 24.3909C107.149 24.4957 106.907 25.0744 107.157 25.4597C107.422 25.8675 107.687 26.2753 107.951 26.6832C107.212 27.4022 106.519 28.1534 105.864 28.9304C104.042 31.0905 102.518 33.4586 101.154 35.9669C100.614 36.1845 100.074 36.4005 99.5343 36.6182C99.0138 36.8277 98.7794 37.4306 99.2013 37.8739C99.4017 38.0851 99.5811 38.3076 99.7347 38.5413C98.9701 39.8036 98.0698 40.9546 96.8106 41.709C96.4275 41.9379 96.1398 42.2974 95.9862 42.7052C95.8553 42.7923 95.726 42.8858 95.5983 42.9809C95.2427 43.2485 95.0277 43.832 95.4447 44.1786C95.7373 44.4237 96.0121 44.7138 96.2449 45.0346C96.295 45.2168 96.3467 45.4006 96.3984 45.5827C95.2281 46.6563 94.2551 47.904 93.5244 49.3033C93.3515 49.2759 93.1737 49.2936 93.0298 49.4C91.7238 50.3624 91.685 51.8954 92.2103 53.2657C91.8935 55.3307 92.0971 57.4473 92.7082 59.4478C91.9048 60.2474 91.4215 61.4016 91.2243 62.5139C90.8768 64.4677 90.8525 67.4726 90.762 69.4667C89.8859 70.3097 89.262 71.4011 88.9144 72.5747C88.6219 72.7197 88.3293 72.8648 88.0367 73.0099C87.7765 73.1389 87.5857 73.479 87.6019 73.766C87.6763 75.1539 88.2501 76.2501 89.0114 77.2431C89.2814 78.0088 89.6806 78.7149 90.2043 79.392C90.5664 79.8562 90.9204 80.3012 91.2324 80.8025C91.2647 80.8525 91.2841 80.8992 91.2986 80.9315C91.1758 81.0636 91.074 81.2829 90.9851 81.4392C90.2383 82.7514 90.227 84.2893 91.2873 85.4323C90.8881 85.7579 90.8751 86.4156 91.2275 86.8186C93.5212 89.4317 95.4334 92.6091 98.6161 93.997C98.6307 94.0212 98.6436 94.0454 98.6549 94.0695C98.01 95.6171 97.9227 96.4215 98.4496 98.0207C98.4529 98.0352 98.4577 98.0481 98.4626 98.0626C98.7438 98.9008 99.2611 100.244 100.194 100.505C100.488 100.587 100.777 100.624 101.063 100.622C101.804 101.333 102.542 102.046 103.281 102.758C103.346 103.111 103.386 103.468 103.399 103.827C103.42 104.429 103.987 104.915 104.598 104.738C104.813 104.675 106.003 103.523 106.221 103.529C106.331 103.639 106.438 103.748 106.545 103.859C106.937 104.271 107.482 104.919 107.527 105.349C107.615 106.16 108.148 107.088 109.01 107.253C109.333 107.58 109.85 107.678 110.246 107.251C110.272 107.224 110.298 107.196 110.325 107.172C110.367 107.167 110.408 107.163 110.45 107.158C110.641 107.725 110.831 108.293 111.024 108.858C111.4 109.974 112.839 110.691 113.861 110.04C114.025 110.138 114.187 110.243 114.349 110.348C114.594 110.504 114.843 110.664 115.099 110.814C115.113 110.856 115.128 110.898 115.141 110.938C115.306 111.439 115.991 111.708 116.413 111.42C116.544 111.462 116.678 111.496 116.814 111.523C117.527 111.663 118.244 111.625 118.933 111.388C119.426 111.22 119.896 110.899 120.426 110.856C120.46 110.853 120.494 110.855 120.527 110.854C120.96 111.738 121.948 112.499 122.727 112.758C123.747 113.097 124.792 112.976 125.721 112.561C125.971 113.061 126.286 113.534 126.662 113.972C126.871 114.214 127.248 114.162 127.463 113.972C127.871 113.611 128.277 113.248 128.682 112.885C128.975 112.772 129.271 112.637 129.58 112.511C130.545 112.118 131.604 111.955 132.497 111.387C132.921 111.117 133.32 110.772 133.648 110.373C134.267 110.017 134.835 109.573 135.347 109.065C135.603 109.066 135.87 109.007 136.128 108.876C137.21 108.328 137.779 107.212 137.829 106.071C138.705 104.016 139.222 101.823 139.364 99.5795C139.41 98.8428 139.418 98.0997 139.361 97.363C139.322 96.8439 139.191 96.4973 138.994 96.0282C138.928 95.875 138.868 95.7348 138.821 95.58C138.832 95.0835 138.839 94.587 138.845 94.0921C138.98 93.6746 139.219 93.2861 139.552 92.9589C140.067 92.4527 140.303 91.4016 139.835 90.7762C139.529 90.3715 139.225 89.9669 138.92 89.5623C139.005 87.8261 139.422 85.0631 138.498 84.7729C138.535 84.515 138.614 84.2603 138.66 84.004C138.876 82.7724 138.747 81.6714 138.091 80.5945C137.953 80.3705 137.837 80.1722 137.741 79.9787C137.682 79.6241 137.622 79.2694 137.562 78.9148C137.47 78.3683 137.379 77.817 137.302 77.2625C137.261 76.5564 137.224 75.8503 137.184 75.1426C137.147 74.4914 137.105 73.8401 137.061 73.1872C137.079 72.8955 137.105 72.6037 137.142 72.3119C137.363 70.5725 138.076 69.9293 139.311 68.7203C139.505 68.6896 139.697 68.6558 139.886 68.6171C140.767 68.4349 141.689 68.1528 142.595 68.2544C143.58 68.364 144.461 68.788 145.418 68.2463C145.699 68.0851 146.318 67.6402 146.371 67.2872C146.375 67.2646 146.379 67.2453 146.386 67.2308C146.452 67.2211 146.538 67.213 146.591 67.2114C147.351 67.1856 148.077 67.4838 148.843 67.4016C149.75 67.3049 150.561 66.9035 151.095 66.3087C151.778 66.4763 152.477 66.5521 153.186 66.4586C153.781 66.3812 154.314 66.1878 154.841 65.9008C155.224 65.6945 155.103 65.6348 155.52 65.8025C156.469 66.1862 157.327 66.6923 158.396 66.4296C158.95 66.2942 159.429 65.9959 159.831 65.5945C159.927 65.501 160.088 65.3608 160.197 65.2286C160.704 65.4849 161.981 66.0636 162.191 66.1152C162.786 66.2603 163.416 66.2377 163.995 66.0443C164.42 65.9024 164.941 65.5155 165.314 65.4366C165.797 65.3334 166.871 66.004 167.448 66.2345C168.46 66.6391 169.531 66.7391 170.556 66.3216C170.909 66.1781 171.594 65.6058 171.857 65.6107C172.286 66.1378 173.482 69.0217 173.841 70.0744C175.294 74.3302 175.67 87.6182 175 91.0083C174.974 91.1082 174.946 91.2066 174.919 91.3065C174.094 94.2549 173.236 97.2533 171.857 100C170.556 102.589 168.757 104.92 166.176 106.334C163.499 107.801 160.357 108.186 157.347 107.988C155.409 107.862 153.503 107.474 151.628 106.987C150.648 106.734 149.677 106.452 148.71 106.158C148.288 106.031 147.86 105.912 147.446 105.763C146.716 105.501 146.333 105.48 145.633 105.816C144.996 106.123 144.833 107.027 145.164 107.596C145.704 108.525 146.693 108.589 147.648 108.86C148.621 109.136 149.598 109.4 150.581 109.637C152.464 110.088 154.377 110.435 156.307 110.595C159.763 110.883 163.324 110.438 166.47 108.934C166.825 108.763 167.168 108.581 167.5 108.384C167.377 108.555 167.252 108.726 167.126 108.895C166.777 109.365 167.036 110.163 167.525 110.419C167.681 110.499 167.836 110.577 167.993 110.653C168.014 110.703 168.036 110.753 168.062 110.803C168.51 111.699 169.447 112.228 170.403 112.456C171.537 112.727 172.808 112.535 173.962 112.502C175.032 112.469 176.102 112.437 177.171 112.405C177.423 112.398 177.675 112.39 177.927 112.382C179.198 112.344 180.466 112.307 181.735 112.268C182.867 112.234 182.813 112.321 183.875 111.87C184.349 111.667 184.737 111.38 185.063 110.998C185.267 110.907 185.464 110.804 185.653 110.686C186.261 110.309 186.801 109.803 187.299 109.245C188.144 109.511 189.329 109.265 189.494 108.206C189.759 106.511 191.967 105.787 192.998 104.562C193.831 103.574 194.426 102.28 194.395 101.037C196.493 100.024 197.634 97.3565 197.901 95.0932C198.025 94.0438 198.006 92.9202 198.185 91.853C198.265 91.7676 198.336 91.6773 198.396 91.5806C198.923 90.731 199.382 89.8557 199.786 88.9594C200.335 88.5645 200.996 88.321 201.688 88.2807C203.389 88.1824 203.709 85.8949 202.088 85.3436C202.079 85.3404 202.073 85.3388 202.065 85.3355C202.505 84.2394 202.467 82.9417 201.934 81.9035C201.957 81.7907 201.978 81.6794 201.999 81.5666C202.909 80.5913 203.431 79.2356 203.373 77.9153C203.788 77.6236 204.254 77.3979 204.763 77.2576C205.55 77.0416 205.555 76.0841 204.973 75.6553C204.738 75.4828 204.544 75.2813 204.383 75.0588C204.785 73.853 204.627 72.4586 203.804 71.4688C204.326 70.8014 204.848 70.134 205.37 69.4667C205.716 69.025 205.899 68.2754 205.37 67.8562C205.033 67.587 204.695 67.3194 204.355 67.0518Z" fill="black"/>
<path fill-rule="evenodd" clip-rule="evenodd" d="M166.461 96.2255C165.364 96.6556 164.068 96.7572 162.936 96.3907C161.853 96.0402 160.87 95.2602 160.275 94.2792C159.745 93.4055 159.524 92.3686 159.837 91.335C159.852 91.2855 159.9 91.2538 159.947 91.2415C160.203 91.4741 160.362 91.7051 160.52 91.935C160.786 92.3226 161.054 92.7062 161.42 93.0376C161.954 93.5197 162.673 93.9112 163.387 94.0404C164.086 94.1671 164.801 94.0551 165.426 93.7216C165.807 93.5189 166.114 93.2478 166.419 92.9756C166.751 92.6792 167.077 92.3782 167.534 92.2108C167.9 92.0766 168.285 92.1898 168.58 92.4143C168.898 92.6555 169.126 93.0331 169.113 93.4279C169.094 94.0395 168.825 94.5497 168.436 94.9706C167.909 95.5396 167.164 95.9497 166.461 96.2255ZM165.159 80.9836C166.379 81.7236 168.239 83.4489 166.926 85.2833C165.38 86.9007 163.155 85.0462 162.058 84.2075C161.042 83.5575 159.899 85.2293 160.842 85.9883C168.767 91.8392 171.983 81.1771 165.776 80.1136C165.093 79.9965 164.839 80.7547 165.159 80.9836ZM152.32 70.7313C153.984 70.652 155.45 71.397 157.035 71.7356C158.5 72.0486 159.944 71.8607 161.369 71.4625C163.681 70.8162 164.637 74.3466 162.356 75.0346C160.695 75.5356 158.946 75.5704 157.242 75.3122C155.727 75.0826 154.458 74.3476 153.015 73.9196C151.776 73.5524 150.318 73.705 149.01 73.8779L148.502 73.946C147.747 74.0474 146.988 74.1491 146.241 74.2963C145.592 74.4241 144.945 74.658 144.283 74.6851C144.208 74.6883 144.144 74.591 144.192 74.526C144.96 73.4732 146.442 72.6426 147.621 72.0885L147.701 72.0512C149.156 71.3746 150.7 70.8083 152.32 70.7313ZM151.71 78.4942L151.71 78.4578C151.712 77.4299 152.313 75.0828 153.796 75.0828C154.723 75.0828 155.286 76.6802 155.384 78.3268L155.387 78.3939C155.43 79.4176 155.148 81.6553 153.796 81.6553C152.43 81.6553 151.724 79.536 151.71 78.4942ZM173.557 78.4942L173.557 78.4578C173.555 77.4299 172.955 75.0828 171.471 75.0828C170.567 75.0828 170.009 76.6013 169.892 78.2034L169.884 78.3268C169.825 79.3159 170.089 81.6553 171.471 81.6553C172.837 81.6553 173.543 79.536 173.557 78.4942ZM173.534 69.4793L173.64 69.4816C175.375 69.5416 177.158 70.566 177.621 72.2869C177.645 72.3762 177.535 72.4363 177.469 72.375C176.043 71.0437 174.126 72.3158 172.698 72.9826L172.174 73.2242C170.333 74.0783 168.239 75.0823 166.196 74.4459C165.225 74.1436 164.609 73.149 164.885 72.1444C165.132 71.2505 166.214 70.4993 167.151 70.8219L167.193 70.8373C167.955 71.1278 168.891 70.8335 169.677 70.5434L170.323 70.3015C171.361 69.9084 172.405 69.4687 173.534 69.4793Z" fill="black"/>
</svg>
