<svg width="255" height="294" viewBox="0 0 255 294" fill="none" xmlns="http://www.w3.org/2000/svg">
<g clip-path="url(#clip0)">
<path fill-rule="evenodd" clip-rule="evenodd" d="M244.229 183.552C240.81 183.887 237.391 184.221 233.972 184.556C217.598 185.805 201.23 188.413 184.98 189.978C184.576 189.321 183.784 189.429 183.303 189.886C181.682 189.744 179.865 188.507 178.396 189.794C178.348 189.787 178.3 189.779 178.252 189.775C175.637 184.765 173.829 179.421 172.075 174.071C170.955 170.781 169.449 167.596 166.664 165.388C161.913 162.096 151.026 155.42 145.447 155.701C145.355 154.703 144.889 153.676 144.124 153.012C145.81 150.144 139.071 148.273 138.596 148.606C138.901 139.025 134.386 130.705 124.43 128.797C115.511 126.942 102.825 126.63 98.028 135.934C97.5007 135.875 92.1107 135.847 91.5892 135.905C90.7784 134.88 81.8738 144.593 85.5234 147.974C52.8948 162.381 34.3421 160.662 25.311 201.163C24.0901 204.968 24.0012 209.131 22.7119 212.851C18.1252 223.541 14.4049 234.925 13.479 246.557C11.2428 247.129 10.9857 251.064 13.5759 251.633C14.5652 251.851 15.3926 252.148 16.1141 252.712C15.5501 262.244 17.8599 284.02 19.3152 283.952C22.2827 293.379 35.5191 296.039 44.89 292.727C43.2746 295.76 44.89 297.667 44.89 299.288C78.6092 300.562 115.478 299.828 149.187 301.575C153.499 301.513 158.035 302.632 162.288 301.988C164.882 301.367 164.886 297.297 162.255 296.793L173.751 294.301C173.494 294.204 178.49 290.888 182.266 284.69C185.78 277.757 183.388 269.388 184.98 261.847C197.418 260.831 210.061 260.397 222.362 258.295C224.039 263.304 231.3 257.313 233.608 254.904C233.605 254.9 233.602 254.896 233.599 254.892C234.716 254.587 235.612 253.543 235.642 252.306C236.425 251.189 236.589 249.614 235.838 248.535C239.281 228.706 244.53 208.461 246.427 188.446C247.097 188.298 247.729 188.005 248.264 187.552L248.221 187.509C249.128 186.5 249.304 184.757 247.792 183.899C246.572 183.207 245.553 183.422 244.229 183.552Z" fill="white"/>
<path fill-rule="evenodd" clip-rule="evenodd" d="M98.6496 133.773C99.6655 131.225 103.1 132.216 102.717 134.893C102.488 136.496 101.608 138.19 100.817 139.595C100.174 140.74 99.4397 141.856 98.4444 142.714C100.216 144.364 102.055 145.953 103.941 147.463C105.999 149.11 108.163 150.628 110.399 152.023C112.36 153.246 114.41 154.331 116.259 155.727C117.978 157.025 119.544 158.586 120.341 160.624C121.189 162.794 120.821 165.035 120.196 167.203L120.124 167.449C119.485 169.597 118.38 172.187 119.913 174.211C120.693 175.242 121.827 175.972 122.807 176.795C123.677 177.528 124.495 178.324 125.244 179.179C126.878 181.044 128.207 183.142 129.046 185.48L129.121 185.692C129.84 187.762 130.365 190.297 129.394 192.329C129.115 192.911 128.216 192.722 128.06 192.155C127.707 190.87 127.726 189.524 127.43 188.221C127.122 186.866 126.61 185.58 125.94 184.363C124.645 182.009 122.892 179.998 120.82 178.298L120.2 177.795C118.584 176.471 117.099 175.066 116.771 172.875C116.42 170.531 117.361 168.298 117.966 166.079C118.387 164.533 118.525 163.051 118.069 161.653C117.513 162.56 116.753 163.421 116.152 164.189C114.956 165.719 113.748 167.239 112.544 168.762C111.309 170.324 110.104 171.911 108.957 173.539C108.444 174.267 107.936 174.999 107.43 175.733C107.05 176.284 106.519 176.834 106.104 177.396C106.205 177.697 106.198 178.044 106.015 178.29C103.816 181.256 100.687 175.067 99.8709 173.504C98.2093 170.32 96.9726 166.937 95.3054 163.754C93.5778 160.454 91.6106 157.242 89.4181 154.229C88.0919 152.407 86.6054 150.695 85.3922 148.815C82.5341 151.402 78.773 153.136 75.3184 154.709C71.5228 156.436 67.5794 157.847 63.6878 159.346L62.5383 159.792C55.8329 162.404 48.9637 165.273 43.3902 169.913C36.8409 175.365 32.9664 182.964 30.0819 190.833C26.7614 199.892 24.0143 209.195 21.4535 218.492C20.1431 223.249 18.8997 228.028 17.7308 232.822C16.7007 237.045 15.8469 241.311 14.6545 245.49C17.0728 245.405 19.8309 246.34 21.8955 246.609C31.3052 247.839 40.5881 249.799 49.4719 253.191C50.5693 253.611 50.8868 254.704 50.6478 255.591C51.2806 255.413 51.913 255.232 52.5458 255.055C51.8525 253.994 52.1834 252.099 52.2379 250.923L52.2413 250.843C52.2973 249.277 52.4675 247.709 52.5779 246.146C52.7881 243.166 53.0617 240.207 53.4256 237.245L53.5184 236.504C53.9307 233.28 54.2355 230.038 54.6854 226.82L54.7386 226.452C54.5228 225.628 54.2717 224.815 54.0081 224.005C53.3056 221.849 52.314 219.818 51.4451 217.729C51.3426 217.483 51.6937 217.342 51.8577 217.49C53.3293 218.811 54.4982 220.487 55.4373 222.241C55.4535 222.158 55.4679 222.075 55.4849 221.992L55.5921 221.466C55.8563 220.182 56.1777 218.831 56.9668 217.79C57.0508 217.679 57.217 217.656 57.2965 217.79C58.0517 219.065 58.1362 220.681 58.2523 222.132C58.3838 223.774 58.4003 225.437 58.3771 227.083C58.3318 230.3 58.1046 233.527 57.9236 236.739C57.746 239.896 57.3973 243.012 56.9478 246.138L56.8624 246.724C56.6427 248.212 56.4628 249.718 56.173 251.196L56.0912 251.598C55.9362 252.331 55.8409 253.364 55.5326 254.222C63.467 252.013 71.4137 249.854 79.3754 247.734C85.1298 246.201 90.8902 244.691 96.6481 243.172C96.952 242.625 97.3303 242.115 97.8025 241.658C99.3581 240.155 101.42 239.484 103.31 240.641C103.464 240.736 103.477 240.976 103.31 241.067C102.948 241.265 102.585 241.467 102.229 241.679L105.686 240.744C108.27 240.045 110.886 239.171 113.531 238.684C118.402 236.284 123.642 234.547 128.774 232.831L129.379 232.627C132.007 231.732 134.725 230.731 137.44 230.236C139.427 229.873 141.76 230.311 142.56 232.343C143.571 233.009 144.523 233.791 145.442 234.56C146.106 235.116 146.743 235.707 147.39 236.283L147.51 236.387C148.039 236.845 148.458 237.152 148.588 237.882C148.655 238.259 148.416 238.768 147.95 238.719C146.525 238.566 145.366 236.918 144.4 235.933C143.653 235.172 142.901 234.386 142.219 233.549C141.822 233.765 141.278 233.727 141.025 233.249C139.714 230.77 136.122 232.488 134.135 233.075L131.288 233.916C129.864 234.337 128.442 234.761 127.021 235.191C123.117 236.375 119.233 237.699 115.294 238.785C115.646 239.172 115.597 239.86 114.928 240.122C111.844 241.329 108.462 241.954 105.258 242.782C103.236 243.306 101.214 243.833 99.1938 244.362C98.8474 244.923 98.5981 245.556 98.4932 246.294C98.1076 249.007 98.8513 252.137 99.5757 254.76L99.6849 255.152C100.28 257.261 101.156 259.847 102.98 261.179C103.425 261.504 103.992 261.73 104.563 261.781C108.132 259.947 111.701 258.114 115.272 256.283C115.934 255.944 116.545 256.403 116.694 256.949C117.953 256.743 119.209 256.418 120.354 256.03C122.276 255.379 123.777 254.136 125.58 253.276C129.068 251.613 132.629 253.656 135.752 255.209L136.472 255.562C137.872 256.24 140.785 257.543 141.457 255.688C142.107 253.894 140.052 251.976 138.725 251.168C137.144 250.205 135.302 249.69 133.514 249.261C132.493 249.016 131.46 248.816 130.421 248.67C129.242 248.504 128.024 248.529 126.889 248.147C126.325 247.958 126.238 247.064 126.889 246.916C128.636 246.519 130.722 246.952 132.546 247.395L133.499 247.629C135.336 248.079 137.191 248.644 138.864 249.541C140.081 250.194 141.365 251.186 142.204 252.4C142.933 251.725 143.84 251.747 144.784 251.998L145.297 252.14C146.144 252.374 146.83 252.536 147.654 252.373C147.764 251.775 147.875 251.177 147.995 250.578C149.169 244.696 150.456 238.836 151.877 233.007C154.327 222.953 157.163 213.01 160.359 203.169L160.68 202.185C161.417 199.934 162.01 197.481 163.199 195.413C164.323 193.458 166.124 192.332 168.264 191.735C170.692 191.058 173.244 190.704 175.721 190.247C176.274 190.145 176.828 190.048 177.381 189.948C176.914 189.106 176.565 188.15 176.251 187.416L176.195 187.289C175.52 185.752 174.914 184.188 174.328 182.616L173.89 181.434C172.833 178.587 171.741 175.787 170.254 173.125C168.689 170.323 166.613 168.032 164.025 166.137C158.748 162.271 152.388 160.299 147.27 156.167C147.061 155.998 147.329 155.709 147.542 155.816C150.998 157.549 154.729 158.727 158.323 160.138L159.032 160.418C161.873 161.542 164.758 162.766 167.218 164.586C169.959 166.615 172.118 169.135 173.741 172.133C175.341 175.087 176.364 178.394 177.492 181.549L177.794 182.39C178.249 183.651 178.719 184.908 179.258 186.135C179.686 187.109 180.484 188.221 180.846 189.334C181.839 189.162 182.831 188.99 183.825 188.824C205.342 185.238 227.1 183.131 248.906 182.515C249.759 182.491 250.201 183.304 250.075 184.046C247.982 196.398 246.122 208.791 244.082 221.151C243.191 226.546 242.283 231.937 241.353 237.325C240.882 240.054 240.338 242.774 239.892 245.507C239.531 247.715 239.27 249.94 238.652 252.097C238.097 254.031 237.246 255.895 235.849 257.37C234.342 258.961 232.239 259.73 230.123 260.094C224.75 261.017 219.238 261.394 213.821 262.009L184.982 265.284C185.403 269.107 185.435 272.871 185.242 276.739L185.131 278.851C185.041 280.549 184.934 282.25 184.689 283.931C184.383 286.04 183.416 287.825 181.993 289.4C180.686 290.846 179.098 292.081 177.553 293.263C175.95 294.491 174.293 295.676 172.408 296.435L172.164 296.532C170.51 297.177 167.408 298.175 165.147 297.81C165.443 299.288 166.014 300.877 165.507 302.339C165.272 303.018 164.383 303.356 163.838 302.779C162.758 301.634 162.674 300.121 162.418 298.628C162.152 297.073 161.923 295.513 161.719 293.95C161.325 290.926 161.018 287.875 160.925 284.826C160.828 281.695 160.866 278.559 161.035 275.431C161.121 273.825 161.229 272.22 161.433 270.624C161.521 269.943 161.61 269.262 161.711 268.583C161.749 268.336 161.79 268.089 161.834 267.843L159.246 268.135C155.276 268.577 151.306 268.976 147.308 269.038C146.835 269.046 146.471 268.831 146.233 268.517C145.979 268.93 145.538 269.224 144.905 269.222C139.323 269.201 134.125 267.379 129.048 265.232C126.489 264.15 123.97 262.978 121.407 261.904C119.015 260.903 116.457 260.188 114.123 259.059L107.988 262.271C107.943 262.429 107.886 262.578 107.824 262.703C107.425 263.517 106.637 263.958 105.833 264.291C105.061 264.611 104.262 264.71 103.483 264.629C98.8305 267.063 94.1771 269.494 89.5207 271.919L84.8631 274.342C75.5835 279.165 66.3405 284.067 57.0025 288.776L56.315 289.121C53.0896 290.736 49.6262 292.372 46.0468 293.593C45.9831 294.497 46.0233 295.377 46.0992 296.334L46.1175 296.542C46.2242 297.673 46.453 299.091 45.544 299.896C45.0711 300.315 44.2264 300.316 43.9048 299.685C43.3213 298.54 43.8452 296.735 44.03 295.491C44.0956 295.049 44.1756 294.594 44.2939 294.153C40.1904 295.372 35.9627 295.963 31.7869 295.278C27.7213 294.612 24.5724 292.056 22.0339 288.929C19.3549 285.629 17.4511 281.784 16.4297 277.661C15.2672 272.971 15.1913 268.126 15.2186 263.321C15.2476 258.205 15.4372 253.063 16.0607 247.981C15.3776 247.821 14.62 247.682 13.9297 247.73C13.5878 248.276 12.9246 248.506 12.3253 248.435C11.022 249.869 14.3277 251.336 15.3841 251.703C15.7509 251.83 15.7116 252.425 15.2885 252.407L15.022 252.394C13.3897 252.308 11.7033 252.03 10.7435 250.515C9.97447 249.302 10.2055 247.864 11.1223 246.874C11.7279 241.16 13.1755 235.595 14.5228 230.02C15.845 224.549 17.3154 219.112 18.8738 213.703L19.5725 211.282C22.0263 202.801 24.5912 194.251 27.976 186.107C29.6662 182.04 31.6133 178.048 34.2526 174.502C36.7128 171.197 39.6174 168.368 42.9561 165.953C49.1803 161.449 56.4837 158.728 63.6596 156.135L63.9808 156.019C67.6995 154.676 71.4091 153.317 75.0854 151.863C78.3367 150.576 81.4516 148.945 84.6876 147.639C84.5824 147.449 84.4809 147.256 84.3832 147.061L84.3234 147.112C84.3132 147.12 84.3027 147.128 84.2918 147.135C83.9664 147.36 83.4873 147.25 83.2191 146.997C82.4619 146.284 82.7182 145.492 83.2237 144.753L83.2895 144.658C83.9077 143.794 84.4591 142.88 85.0297 141.984L85.387 141.424C86.3447 139.928 87.3512 138.421 88.6282 137.185C89.2196 136.611 89.867 136.183 90.553 135.863C90.4944 135.739 91.0087 135.486 91.1545 135.614C93.3279 134.82 95.8283 134.986 98.1978 135.205M183.587 265.442L180.565 265.785C177.241 266.163 173.915 266.528 170.589 266.889L163.365 267.673C163.346 268.084 163.296 268.486 163.287 268.796C163.24 270.397 163.205 271.998 163.171 273.599C163.105 276.808 163.178 280.02 163.389 283.223C163.595 286.327 163.865 289.431 164.285 292.513L164.371 293.13L164.42 293.454C164.763 293.487 165.1 293.649 165.38 293.983C165.991 294.711 168.203 294.003 169.067 293.696C170.489 293.192 171.827 292.339 173.062 291.484C174.267 290.649 175.353 289.675 176.397 288.65L177.25 287.807C178.1 286.965 178.95 286.067 179.47 285.008C180.176 283.571 180.267 281.807 180.474 280.242C180.729 278.318 181.032 276.393 181.352 274.478M95.8677 245.237L95.5543 245.32C84.1688 248.339 72.8004 251.448 61.38 254.334C55.7283 255.763 50.0498 257.088 44.3912 258.489L43.4751 258.718C39.0111 259.844 34.4934 261.199 31.075 264.431C30.9488 264.55 30.7656 264.367 30.8844 264.241C34.5686 260.326 39.8084 258.669 44.8395 257.232C45.7694 256.967 46.7006 256.707 47.6308 256.443C40.7887 254.009 33.8385 251.891 26.728 250.38C24.897 249.991 23.0447 249.705 21.2152 249.315C19.9393 249.042 18.6932 248.648 17.4308 248.322L16.4377 248.072L16.4245 251.205C16.408 255.642 16.4159 260.075 16.6427 264.511L16.6856 265.333C16.9502 270.27 17.3632 275.309 19.1185 279.964C20.5448 283.747 22.8182 287.31 25.7913 290.066C27.2957 291.46 28.9131 292.545 30.9124 293.081C32.7687 293.578 34.7137 293.636 36.622 293.504C45.7754 292.866 53.9234 287.903 61.8747 283.794C74.8801 277.073 87.887 270.355 100.906 263.66C100.554 263.42 100.222 263.143 99.9209 262.832C98.1752 261.033 97.2543 258.569 96.6495 256.183C96.0056 253.644 95.6206 250.922 95.5758 248.3M112.433 266.255C112.548 266.193 112.681 266.27 112.686 266.4C112.726 267.392 112.177 268.371 111.766 269.265L111.723 269.36C111.224 270.468 110.678 271.561 110.113 272.636C108.984 274.785 107.811 276.911 106.587 279.006C104.124 283.222 101.388 287.261 98.1537 290.932C97.4231 291.761 96.2216 290.698 96.6905 289.805C98.9507 285.501 101.586 281.437 104.298 277.408C105.656 275.391 107.013 273.372 108.384 271.364C108.956 270.526 109.535 269.691 110.13 268.869L110.489 268.377M247.464 184.98C236.039 185.325 224.627 186.068 213.256 187.234C202.681 188.318 192.145 189.761 181.668 191.559C179.48 191.935 177.295 192.326 175.112 192.732L173.802 192.978C171.619 193.391 168.952 193.561 167.008 194.726C164.959 195.953 164.405 198.518 163.723 200.633C162.922 203.12 162.14 205.615 161.38 208.115C158.361 218.043 155.604 228.058 153.144 238.138C151.923 243.142 150.839 248.174 149.698 253.195C148.683 257.657 147.564 262.069 146.395 266.486C146.539 266.374 146.716 266.289 146.929 266.244C152.735 265.011 158.662 264.475 164.554 263.794L165.124 263.727C171.22 263.012 177.316 262.302 183.415 261.617L223.798 257.084C226.18 256.817 228.732 256.781 231.049 256.143C234.99 255.058 235.914 250.661 236.575 247.159L236.595 247.053C238.588 236.472 240.175 225.799 242.034 215.192M147.335 254.186C145.767 254.083 143.621 252.65 142.432 252.753C143.056 253.798 143.338 254.991 142.978 256.265C141.976 259.81 137.447 257.976 135.265 256.893C133.476 256.004 131.749 254.918 129.769 254.501C127.525 254.031 126.005 254.921 124.11 255.948C122.553 256.791 120.858 257.396 119.114 257.709C118.187 257.876 117.306 257.894 116.427 257.829C116.374 257.872 116.315 257.912 116.247 257.947L115.782 258.191C117.884 258.287 120.026 258.934 121.983 259.527C124.01 260.142 126.001 260.882 127.98 261.639L129.928 262.386C134.733 264.223 139.706 265.966 144.905 265.951C145.279 265.95 145.585 266.053 145.826 266.222M138.563 243.079C140.112 242.89 141.541 243.093 142.779 244.1C144.272 245.313 145.275 247.326 147.42 247.458C148.046 247.496 148.191 248.375 147.57 248.558C145.972 249.03 144.679 248.168 143.591 247.048L142.859 246.285C141.784 245.173 140.792 244.314 138.967 244.38C137.013 244.452 135.055 244.902 133.114 245.131C130.914 245.391 128.715 245.612 126.509 245.803C126.406 245.812 126.389 245.651 126.485 245.627L128.956 245.013M137.068 236.759L137.324 236.734C139.573 236.516 141.63 236.507 143.638 237.715L144.024 237.948C145.835 239.046 147.806 240.341 148.939 242.12C149.124 242.411 148.818 242.753 148.508 242.679C146.331 242.158 144.74 240.564 142.909 239.371C140.855 238.032 138.733 238.253 136.39 238.461C134.122 238.662 131.856 238.939 129.61 239.316C127.5 239.67 125.383 240.23 123.251 240.408L123.252 240.404C123.008 240.403 122.869 240.038 123.118 239.914C125.281 238.836 127.786 238.326 130.139 237.834M205.395 214.57C205.177 213.533 206.456 213.051 207.049 213.875L207.175 214.048C208.456 215.8 210.308 217.997 210.214 220.225C211.34 220.249 212.507 220.932 212.946 221.946C213.149 222.415 213.217 222.971 213.173 223.547C214.196 223.626 215.312 224.297 215.938 224.949C216.975 226.032 217.056 227.561 216.312 228.826C214.69 231.583 211.147 232.586 208.156 232.81L208.049 232.817C204.959 233.031 200.507 232.973 198.389 230.327C196.345 227.775 198.604 225.709 200.92 224.587C200.317 224.037 200.005 223.249 200.298 222.418C200.814 220.958 202.634 220.394 203.662 219.378C204.916 218.141 205.744 216.442 205.414 214.667M207.093 216.815C206.752 218.293 205.915 219.644 204.749 220.716C204.303 221.125 203.816 221.49 203.297 221.803L203.235 221.839C202.775 222.097 201.645 222.58 201.732 223.158C201.822 223.752 203.663 224.682 204.165 224.682C204.279 224.682 204.344 224.86 204.227 224.912C203.318 225.313 202.523 225.485 201.634 225.061C201.039 225.667 200.462 226.293 199.89 226.914C198.879 228.014 199.225 229.174 200.42 229.992C202.34 231.307 205.258 231.275 207.498 231.18C209.752 231.084 212.162 230.582 213.923 229.083L214 229.016C214.957 228.166 215.831 226.727 214.366 225.909C213.792 225.588 213.172 225.607 212.627 225.451C212.117 226.449 211.289 227.248 210.28 227.402C209.464 227.527 208.902 226.503 209.644 226.014L209.811 225.91C210.743 225.317 211.538 224.402 211.517 223.212C211.503 222.385 210.346 221.341 209.593 222.118L209.558 222.155C208.928 222.864 207.817 221.97 208.232 221.184L208.252 221.149M60.05 175.714C60.0471 175.536 60.2973 175.47 60.3847 175.623C61.8482 178.193 62.6132 181.343 63.3928 184.175C64.2093 187.14 64.8685 190.136 65.4606 193.154C66.6599 199.266 67.299 205.342 67.3423 211.57C67.3483 212.459 65.8968 212.696 65.7548 211.785C64.8122 205.726 63.909 199.661 62.9592 193.604C62.4813 190.558 61.925 187.523 61.3928 184.486M74.5382 180.19C74.4304 179.835 74.9471 179.717 75.0793 180.041C78.0162 187.237 79.0108 195.391 77.1253 202.983C76.8368 204.144 75.1327 203.641 75.3503 202.494M112.421 173.796C112.406 173.531 112.751 173.489 112.881 173.671C114.273 175.629 114.85 178.25 117.292 179.261C118.511 179.766 119.882 179.678 120.959 180.531C121.679 181.101 122.232 182.002 121.691 182.866C121.517 183.145 121.029 183.285 120.792 182.982C120.447 182.54 120.264 182.011 119.795 181.679C119.134 181.212 118.242 181.183 117.483 180.963C116.502 180.68 115.637 180.183 114.929 179.444M135.67 141.154C135.813 141.081 135.951 141.128 136.043 141.252C136.174 141.428 136.158 141.6 135.997 141.72C136.212 142.158 136.465 143.253 136.501 143.412C136.647 144.058 136.803 144.701 136.966 145.343C137.295 146.637 137.583 147.942 137.913 149.237C138.262 150.61 138.678 151.968 139.141 153.306C139.17 153.393 139.203 153.482 139.238 153.571L139.29 153.707L139.303 153.686C139.397 153.538 139.593 153.642 139.57 153.798C139.549 153.941 139.52 154.084 139.495 154.226L139.544 154.355C139.846 155.168 140.054 156.024 139.498 156.742C139.29 157.01 139.062 157.169 138.777 157.217C138.32 158.72 137.747 160.195 137.133 161.612L136.953 162.026C136.051 164.093 135.088 166.133 133.65 167.893C132.081 169.814 129.923 171.127 128.556 173.232C127.92 174.211 127.477 175.241 127.118 176.347L126.983 176.767C126.728 177.549 126.434 178.308 125.699 178.767C125.464 178.913 125.113 178.866 124.923 178.667C123.416 177.075 124.994 174.102 125.903 172.561C127.167 170.418 128.996 169.047 130.828 167.43C132.802 165.687 134.061 163.355 135.279 161.058C136.025 159.651 136.745 158.214 137.504 156.8C136.711 156.101 136.458 154.713 136.189 153.748L136.165 153.662C135.721 152.116 135.369 150.531 135.146 148.938C134.932 147.407 134.842 145.898 134.899 144.359L134.915 143.966M138.616 148.441C138.441 148.202 138.73 147.93 138.97 147.98C140.431 148.282 141.858 149.164 143.169 149.877L143.308 149.953C144.355 150.516 145.407 151.206 145.956 152.3C146.554 153.489 146.505 154.858 146.423 156.15L146.415 156.271C146.316 157.82 146.3 159.43 145.971 160.951C145.803 161.73 145.096 161.949 144.492 161.765C143.773 164.031 141.754 165.7 140.279 167.487C138.399 169.766 138.753 172.843 138.949 175.588C139.029 176.699 137.644 177.015 136.931 176.422L135.287 175.06C135.013 174.832 134.74 174.604 134.467 174.376C134.234 174.179 134.002 173.982 133.773 173.782L133.43 173.48C133.278 173.344 132.607 172.596 132.411 172.565C131.936 172.49 130.808 173.739 130.421 174.131L130.372 174.18C129.646 174.891 128.989 175.657 128.377 176.469C128.264 176.618 128.044 176.494 128.125 176.322C128.673 175.15 129.31 174.029 130.067 172.98L130.22 172.771C130.724 172.094 131.4 170.898 132.288 170.698C133.374 170.454 134.457 171.54 135.247 172.143L135.297 172.181C135.673 172.462 136.044 172.749 136.415 173.037C136.376 170.993 136.634 168.928 137.692 167.167C138.437 165.925 139.554 165.005 140.509 163.938C141.573 162.75 142.129 161.289 143.092 160.051C143.216 159.892 143.387 159.806 143.572 159.779C143.609 158.784 143.755 157.779 143.869 156.795L143.902 156.5C144.016 155.431 144.288 154.124 143.763 153.123C143.267 152.177 142.13 151.509 141.288 150.867L140.601 150.335M91.2276 137.133C90.788 137.386 90.3771 137.702 90.0043 138.097C88.8308 139.339 87.9918 140.885 87.1753 142.373C86.7357 143.174 86.3119 143.984 85.8687 144.783C85.676 145.131 85.4777 145.475 85.2773 145.818C85.1847 145.976 84.9093 146.291 84.7728 146.485C84.9245 146.697 85.0813 146.906 85.2412 147.112C85.3022 147.191 89.5117 151.768 90.979 153.559C93.2259 156.303 95.2343 159.201 96.9513 162.303C98.6326 165.341 99.9127 168.557 101.47 171.654C102.25 173.204 103.12 174.744 104.23 176.085C104.273 176.138 104.318 176.187 104.362 176.239C104.786 175.097 105.871 173.874 106.404 173.172L106.454 173.105C107.663 171.479 108.939 169.901 110.244 168.351C111.435 166.934 112.657 165.549 113.908 164.186L114.379 163.676C115.251 162.736 116.358 161.33 117.634 160.658C117.498 160.415 117.339 160.174 117.157 159.937C115.962 158.377 114.271 157.245 112.603 156.224L111.522 155.568C107.445 153.088 103.431 150.493 99.8916 147.271C98.019 145.566 96.1722 143.78 94.5981 141.791L94.0415 141.088M98.0305 135.905C96.1212 136.065 94.0594 136.027 92.295 136.648C93.8636 138.128 95.3545 139.726 96.8862 141.231C97.0225 140.213 97.3012 139.208 97.5372 138.215" fill="black"/>
<path fill-rule="evenodd" clip-rule="evenodd" d="M163.017 88.3343C162.109 73.4687 157.277 56.615 143.053 49.3163C111.697 36.7556 70.4696 68.3871 68.2869 100.701C67.5259 111.763 73.679 123.849 84.9232 126.925C87.4231 130.231 91.2038 132.25 94.9354 134.002C139.381 157.018 168.091 138.308 163.017 88.3343Z" fill="white"/>
<path fill-rule="evenodd" clip-rule="evenodd" d="M173.142 79.0871C171.572 74.7328 169.912 70.4118 168.167 66.1244C166.467 61.9517 164.931 57.6887 162.82 53.7137C150.212 29.9726 127.283 29.9726 115.431 33.0747C109.285 30.4315 97.7724 31.177 91.3724 33.5622C81.0115 37.4236 68.3814 52.6132 64.0632 59.4377C54.5291 74.5057 48.5791 94.5609 54.9122 111.973C55.7399 114.248 56.7956 116.356 57.9841 118.387C57.2354 119.4 56.3737 120.359 55.4191 121.302C52.5822 124.103 49.7454 126.812 47.2947 129.972C44.8594 133.112 42.8405 136.451 41.3375 140.133C38.5036 147.076 38.3671 154.938 42.1138 161.563C45.3735 167.327 51.148 171.62 57.6537 172.029C57.9877 172.075 58.3222 172.118 58.6582 172.152C59.5201 173.569 60.5713 174.874 61.7708 176.011C65.4462 179.501 74.2072 181.291 79.2042 181.405C79.4604 181.611 79.719 181.816 79.9776 182.019C83.0352 184.421 86.2436 186.845 89.7538 188.553C92.1314 189.712 95.2489 190.68 97.7294 189.844C98.8548 190.594 100.701 190.437 101.817 189.822C103.651 188.814 105.142 186.998 106.05 185.138C108.25 180.624 107.721 175.684 107.156 170.861C106.534 165.534 105.935 160.205 105.327 154.878C104.85 150.712 104.352 146.477 103.083 142.464C102.427 140.385 101.568 138.387 100.457 136.509C100.485 136.351 100.481 136.193 100.435 136.045C100.071 134.865 99.3193 134.246 98.4286 133.443C98.3136 133.34 98.1987 133.235 98.0862 133.127C97.6408 132.621 97.1643 132.15 96.6543 131.751C96.458 131.552 96.2641 131.352 96.0701 131.151C94.4587 129.466 92.9359 127.695 91.5831 125.797C90.271 123.957 89.0858 122.036 87.958 120.078C86.8111 118.088 86.0521 115.891 84.9076 113.915C84.8094 113.745 84.5604 113.712 84.4215 113.853C84.0672 114.218 83.8397 114.625 83.8828 115.052L83.7056 115.079C83.6386 114.434 83.0424 113.908 82.2331 114.049C81.0215 114.259 80.0255 114.338 78.9767 113.936C79.1611 112.715 79.3311 111.492 79.4987 110.266C79.8052 108.009 80.0901 105.746 80.3343 103.483C80.9258 103.624 81.5124 103.827 82.087 104.085C82.9059 104.451 83.6793 104.943 84.3401 105.548C84.9914 106.145 85.4415 106.951 86.2365 107.367C87.1511 107.842 88.2549 107.056 87.9867 106.024C87.4432 103.937 84.3665 102.742 82.4629 102.348C81.8093 102.212 81.1412 102.154 80.4732 102.169C80.6241 100.716 80.7582 99.2625 80.8683 97.8071C80.921 97.1188 80.9689 96.4305 81.0143 95.7398C82.4941 95.2929 84.0791 95.1591 85.6187 95.3694C86.1263 95.7733 86.6339 96.1724 87.1248 96.5763C88.6835 97.8621 90.235 99.155 91.7674 100.472C91.9063 100.589 92.0428 100.706 92.1817 100.826C93.0915 101.607 94.2265 100.833 94.0732 99.7262C92.8234 90.6589 98.3879 83.4463 104.903 77.8587C112.115 71.6713 125.226 70.9508 133.803 60.2333C137.753 61.0357 146.572 63.419 150.212 69.2073C155.307 77.3186 154.641 84.5862 155.029 93.7873C155.417 102.996 156.403 112.6 154.308 121.68C152.376 130.051 147.144 137.204 139.027 140.493C138.826 140.574 138.623 140.653 138.419 140.729C134.222 142.309 129.642 142.756 125.226 141.924C120.339 141.002 116.259 138.77 112.194 136.024C111.959 135.868 111.617 136.189 111.794 136.423C117.153 143.511 127.678 145.88 136.027 144.008C136.418 143.92 136.805 143.824 137.191 143.719C135.323 149.08 135.699 154.964 138.132 160.183C139.595 163.323 141.826 166.041 144.544 168.184C147.539 170.546 151.255 172.453 153.334 175.768C155.237 178.805 154.672 182.218 151.413 183.972C150.592 184.416 150.276 185.853 151.09 186.484C151.402 186.723 151.713 186.967 152.031 187.205C153.856 188.58 158.867 191.161 159.679 191.256C166.886 192.11 171.732 186.828 174.838 180.597C178.484 173.284 177.536 164.373 173.518 157.408C170.295 151.821 163.948 146.315 166.472 139.243C167.372 136.717 169.213 134.564 171.002 132.618C173.042 130.403 175.235 128.328 177.191 126.034C179.135 123.756 180.859 121.278 181.822 118.42C183.227 114.242 182.528 109.725 181.472 105.555C179.21 96.6026 176.272 87.7696 173.142 79.0871Z" fill="black"/>
<path fill-rule="evenodd" clip-rule="evenodd" d="M140.502 123.434C138.877 124.071 136.957 124.222 135.28 123.679C133.676 123.159 132.22 122.003 131.338 120.548C130.553 119.253 130.226 117.716 130.69 116.183C130.712 116.11 130.784 116.063 130.853 116.045C131.233 116.39 131.467 116.732 131.701 117.073C132.096 117.647 132.492 118.216 133.035 118.707C133.826 119.422 134.891 120.003 135.948 120.194C136.983 120.382 138.042 120.216 138.969 119.721C139.533 119.421 139.988 119.019 140.44 118.616C140.931 118.176 141.415 117.73 142.091 117.482C142.634 117.283 143.203 117.451 143.641 117.783C144.111 118.141 144.449 118.701 144.431 119.286C144.402 120.193 144.004 120.949 143.427 121.573C142.647 122.417 141.544 123.025 140.502 123.434ZM138.573 100.837C140.381 101.934 143.136 104.492 141.191 107.212C138.901 109.609 135.605 106.86 133.981 105.617C132.474 104.653 130.782 107.131 132.179 108.257C143.918 116.931 148.681 101.124 139.487 99.5474C138.475 99.3737 138.099 100.498 138.573 100.837ZM119.555 85.6378C122.02 85.5202 124.191 86.6248 126.54 87.1267C128.71 87.5908 130.848 87.3121 132.959 86.7218C136.384 85.7637 137.8 90.9976 134.422 92.0176C131.961 92.7604 129.37 92.812 126.846 92.4291C124.603 92.0888 122.723 90.999 120.584 90.3645C118.749 89.8202 116.59 90.0464 114.652 90.3027L113.9 90.4037C112.782 90.554 111.658 90.7048 110.55 90.923C109.59 91.1125 108.631 91.4593 107.65 91.4995C107.539 91.5042 107.445 91.3599 107.515 91.2636C108.654 89.7028 110.849 88.4714 112.595 87.65L112.713 87.5946C114.869 86.5916 117.156 85.752 119.555 85.6378ZM118.652 97.1464L118.652 97.0926C118.655 95.5686 119.544 92.089 121.743 92.089C123.116 92.089 123.949 94.4571 124.094 96.8983L124.099 96.9978C124.162 98.5155 123.745 101.833 121.743 101.833C119.719 101.833 118.673 98.6909 118.652 97.1464ZM151.014 97.1464L151.014 97.0926C151.011 95.5686 150.121 92.089 147.923 92.089C146.584 92.089 145.758 94.3402 145.584 96.7154L145.572 96.8983C145.485 98.3647 145.876 101.833 147.923 101.833C149.947 101.833 150.993 98.6909 151.014 97.1464ZM150.98 83.7816L151.137 83.7851C153.706 83.874 156.348 85.3928 157.034 87.944C157.069 88.0764 156.906 88.1655 156.809 88.0747C154.696 86.1009 151.856 87.9869 149.741 88.9755L148.964 89.3337C146.238 90.5998 143.137 92.0883 140.109 91.1447C138.671 90.6966 137.758 89.2221 138.168 87.7327C138.533 86.4075 140.136 85.2938 141.524 85.7721L141.587 85.795C142.715 86.2256 144.101 85.7893 145.266 85.3592L146.223 85.0006C147.761 84.4179 149.307 83.766 150.98 83.7816Z" fill="black"/>
</g>
<defs>
<clipPath id="clip0">
<rect width="255" height="294" fill="white"/>
</clipPath>
</defs>
</svg>
