<svg width="240" height="260" viewBox="0 0 240 260" fill="none" xmlns="http://www.w3.org/2000/svg">
<g clip-path="url(#clip0)">
<path fill-rule="evenodd" clip-rule="evenodd" d="M192.796 246.477C192.284 241.715 191.968 236.919 191.787 232.133C191.606 227.353 191.842 222.514 191.946 217.732C192.158 208.003 192.503 198.252 191.728 188.539C190.997 179.359 189.317 170.243 186.666 161.422C185.375 157.127 184.015 152.658 181.892 148.689C179.757 144.698 176.375 142.041 172.661 139.603C168.706 137.009 164.783 134.365 160.844 131.746C157.537 129.548 151.586 126.989 148.873 124.05C146.018 120.958 145.482 113.293 143.581 109.63C141.729 106.062 136.488 103.735 132.452 103.735C125.773 103.735 120.712 103.393 115.219 109.574C112.479 112.659 114.659 115.777 111.787 118.737C109.146 121.458 102.392 124.255 98.9883 125.834C94.9117 127.726 90.7322 129.396 86.4921 130.883C82.1668 132.401 77.7325 133.532 73.3829 134.964C69.2138 136.336 63.7698 141.994 60.5332 144.988C57.5241 147.772 56.7773 147.46 54.4897 150.841C49.4691 158.262 44.4431 165.768 40.445 173.802C38.4536 177.805 36.5254 182.014 35.8029 186.459C35.0322 191.2 35.7963 195.781 37.0462 200.371C38.3184 205.042 42.3585 209.489 43.6747 214.148C44.2812 216.296 42.1992 218.639 43.1569 220.662C43.6352 221.673 44.2375 222.572 44.9233 223.453C45.4517 224.131 47.5122 223.981 47.7788 224.811C48.0482 225.65 46.5574 227.39 46.5353 228.258C46.5038 229.5 46.4543 230.743 46.4136 231.985L46.1727 239.328C46.0145 244.154 45.8562 248.979 45.698 253.805C45.6462 255.38 45.5708 256.919 45.9484 258.414C45.8121 258.287 45.6826 258.15 45.5643 257.995C45.218 257.543 44.4836 257.926 44.7775 258.455C45.2681 259.338 45.9735 259.96 46.8023 260.406C47.7655 261.826 193.63 264.999 194.347 260.846C194.75 258.516 194.017 256.022 193.724 253.706C193.419 251.295 193.057 248.894 192.796 246.477Z" fill="white"/>
<path fill-rule="evenodd" clip-rule="evenodd" d="M44.6258 186.467C44.9826 185.445 46.6149 185.888 46.2555 186.917C44.4082 192.21 45.7187 197.971 47.7158 203.024C48.1166 204.038 46.4814 204.473 46.0861 203.473C43.9852 198.158 42.6855 192.027 44.6258 186.467ZM57.0124 216.704C62.2223 217.437 67.4364 217.889 72.6821 218.255C72.9166 218.272 73.1194 218.236 73.2948 218.16C73.1385 220.563 73.0117 222.968 72.9124 225.373C71.4821 225.333 70.0223 225.428 68.6047 225.39C66.7518 225.339 64.9011 225.246 63.0525 225.105C59.4737 224.834 55.9011 224.403 52.3624 223.807C51.0399 223.585 49.3603 223.45 47.854 223.01C46.43 222.594 45.1624 221.905 44.4969 220.607C43.9307 219.508 43.8272 218.162 43.8272 216.947C43.8272 216.11 43.9709 215.26 44.0575 214.417C44.1652 214.341 44.2624 214.25 44.3406 214.148C45.9124 214.645 47.5434 214.994 49.1406 215.332C51.7413 215.886 54.38 216.334 57.0124 216.704ZM54.0739 197.162C54.1026 198.777 54.5495 200.244 55.4188 201.604C56.007 202.525 54.5436 203.372 53.9594 202.458C52.936 200.856 52.4176 199.059 52.3838 197.162C52.3643 196.071 54.0545 196.075 54.0739 197.162ZM187.622 214.784C188.327 214.824 189.037 214.848 189.745 214.886C190.369 215.42 191.233 215.693 192.022 215.523C192.049 215.592 192.074 215.668 192.097 215.757C192.236 216.3 192.306 216.883 192.386 217.437C192.466 217.982 192.528 218.532 192.57 219.081C192.591 219.358 192.724 219.984 192.555 220.225C192.403 220.442 192.067 220.423 191.835 220.451C191.209 220.518 190.576 220.55 189.946 220.603C188.757 220.706 187.567 220.81 186.38 220.914C185.216 221.015 183.938 220.984 182.799 221.29C182.604 219.005 182.427 216.721 182.262 214.434C184.026 214.694 185.871 214.687 187.622 214.784ZM39.7095 210.995C40.4193 212.367 41.0743 213.715 42.4327 214.539C42.6102 214.645 42.8088 214.702 43.0116 214.717C42.8595 215.37 42.7644 216.038 42.6799 216.655C42.494 218.014 42.4538 219.419 42.794 220.759C43.1257 222.063 43.675 223.228 44.7524 224.063C45.2531 224.452 45.8003 224.747 46.375 224.982C46.2778 225.255 46.2207 225.525 46.2503 225.823C46.113 226.514 46.0221 227.218 45.9228 227.892C45.7052 229.389 45.4876 230.887 45.3165 232.392C44.9743 235.385 44.7059 238.377 44.4799 241.381C44.2538 244.376 44.0912 247.375 43.9559 250.376C43.8862 251.91 43.825 253.445 43.7679 254.981C43.7109 256.56 43.4552 258.175 44.1524 259.639C44.7144 260.823 46.6137 260.755 47.1968 259.639C47.9362 258.221 47.7186 256.537 47.7376 254.981C47.7566 253.516 47.782 252.05 47.8137 250.585C47.8771 247.586 47.97 244.589 48.044 241.59C48.1158 238.663 48.2045 235.738 48.2637 232.81C48.2933 231.278 48.2954 229.746 48.3038 228.214C48.3081 227.364 48.344 226.457 48.2806 225.572C48.8088 225.696 49.3412 225.802 49.8672 225.91C53.8834 226.734 57.9419 227.334 62.0257 227.706C64.0771 227.892 66.1348 228.023 68.1926 228.098C69.7052 228.152 71.2728 228.258 72.8088 228.201C72.6883 231.87 72.6334 235.541 72.6397 239.212C72.644 241.86 72.6799 244.509 72.7454 247.157C72.7813 248.55 72.8109 249.943 72.8531 251.335C72.8721 251.961 72.8721 252.593 72.9144 253.216C72.9271 253.411 72.9545 253.599 72.9904 253.785C72.851 254.18 72.7348 254.571 72.6397 254.937C72.175 256.712 72.175 258.418 72.382 260.227C72.5595 261.761 73.8503 263.184 75.5552 262.645C75.832 262.558 76.1088 262.467 76.3834 262.374C78.8933 262.659 81.4179 262.725 83.9637 262.774C87.6841 262.846 91.4066 262.869 95.1292 262.888C102.431 262.926 109.734 262.945 117.038 262.966C131.714 263.008 146.391 263.048 161.068 263.091C165.141 263.104 169.214 263.114 173.288 263.127C175.396 263.133 177.5 263.135 179.607 263.216C180.589 263.254 181.574 263.306 182.556 263.321C183.695 263.34 184.702 263.012 185.79 262.715C186.405 262.543 186.648 261.926 186.517 261.404C187.502 261.639 188.695 261.14 189.031 260.03C189.276 259.225 189.186 258.352 188.82 257.606V257.604C188.114 253.147 187.219 248.71 186.515 244.251C185.744 239.367 185.002 234.472 184.35 229.569C183.859 225.865 183.456 228.49 183.107 224.771C184.626 224.889 186.344 224.426 187.848 224.23C188.928 224.09 190.016 223.978 191.097 223.83C191.017 224.921 191.04 226.032 191.011 227.079C190.954 229.156 190.979 231.225 191.032 233.303C191.133 237.312 191.359 234.979 191.721 238.971C192.086 242.993 192.534 247.001 193.077 251.004C193.356 253.064 193.654 255.123 193.969 257.179C194.114 258.139 194.264 259.096 194.419 260.056C194.602 261.186 194.662 262.258 195.509 263.108C196.153 263.752 197.469 263.697 197.896 262.799C198.437 261.664 198.192 260.692 197.991 259.5C197.828 258.542 197.672 257.585 197.518 256.628C197.188 254.575 196.876 252.521 196.582 250.465C196.016 246.502 195.481 242.533 195.004 238.559C194.522 234.554 194.024 236.894 193.55 232.889C193.312 230.868 193.073 228.852 192.794 226.838C192.652 225.802 192.564 224.699 192.378 223.632C192.437 223.623 192.496 223.612 192.555 223.602C193.84 223.367 194.936 222.642 195.259 221.319C195.568 220.053 195.2 218.597 194.94 217.355C194.719 216.296 194.518 214.945 193.837 214.038C196.237 210.98 197.798 207.132 198.794 203.432C199.878 199.401 200.332 195.194 200.429 191.029C200.54 186.203 200.177 181.405 199.35 176.687C199.33 175.687 199.284 174.688 199.21 173.689C198.483 163.891 195.433 152.295 185.761 147.717C185.723 147.698 185.683 147.681 185.643 147.664C184.884 146.757 183.938 145.941 183.173 145.179C181.819 143.826 180.403 142.532 178.903 141.34C175.933 138.98 172.675 137.094 169.288 135.397C165.864 133.679 162.388 132.066 159.042 130.191C156.126 128.556 153.502 126.586 151.012 124.362C148.212 121.862 146.22 118.491 145.438 114.812C145.398 114.619 145.113 114.672 145.109 114.856C144.904 121.6 149.455 127.56 154.692 131.331C160.954 135.835 168.515 137.967 174.866 142.334C176.444 143.418 177.921 144.642 179.326 145.941C177.173 145.721 174.982 145.861 172.964 146.457C172.17 146.408 171.371 146.394 170.575 146.356C168.754 146.265 166.931 146.18 165.107 146.1C161.391 145.935 157.673 145.785 153.955 145.654C146.659 145.396 139.362 145.202 132.065 145.073C117.401 144.813 102.718 144.762 88.0559 145.187C84.0799 145.301 63.1728 144.509 61.2376 144.732C64.0834 142.268 67.2059 140.256 70.639 138.601C74.9341 136.536 79.3728 135.158 83.9595 133.899C93.4052 131.305 103.214 128.805 110.774 122.217C112.652 120.579 114.321 118.696 115.688 116.61C116.993 114.619 118.445 112.07 118.481 109.642C118.506 107.917 116.106 107.29 115.252 108.767C114.722 109.682 114.46 110.686 114.027 111.645C113.596 112.597 113.085 113.514 112.517 114.391C111.399 116.116 110.013 117.654 108.505 119.043C105.289 122.006 101.393 124.176 97.3623 125.819C88.2102 129.545 78.2003 131.117 69.5278 136.029C65.7334 138.178 62.1017 141.144 59.8221 144.927C59.4545 144.984 59.089 145.051 58.7235 145.128C58.9961 144.783 59.2707 144.439 59.5475 144.096C59.7292 143.872 59.4482 143.576 59.2264 143.775C54.9144 147.613 50.9426 151.758 47.3426 156.276C43.8989 160.601 40.6876 165.132 38.4144 170.196C34.3285 179.293 33.4285 189.697 35.539 199.424C36.1137 202.074 36.925 204.669 37.9581 207.178C38.4904 208.473 39.0672 209.75 39.7095 210.995Z" fill="black"/>
<path fill-rule="evenodd" clip-rule="evenodd" d="M132.798 21.2809C144.794 21.2809 159.818 34.9702 164.215 40.7956C167.912 45.6933 167.389 70.9245 167.389 85.8916C167.389 89.0219 165.975 94.9464 165.462 97.9407C163.58 108.913 155.382 118.115 139.157 118.115C125.946 118.115 115.779 113.929 105.948 103.222C103.705 100.779 92.7511 109.524 90.5109 106.375C84.6595 106.375 79.7668 51.682 91.2552 35.2773C102.744 18.8727 120.802 21.2809 132.798 21.2809Z" fill="white"/>
<path fill-rule="evenodd" clip-rule="evenodd" d="M96.7434 25.1333C103.675 18.8244 112.91 15.7895 122.226 16.0135C127.052 16.1297 131.86 17.0491 136.417 18.6237C138.697 19.4141 140.905 20.4455 143.015 21.6122C143.776 22.0316 144.477 22.5231 145.152 23.045L145.32 23.1761H145.322C147.133 23.8271 148.749 24.9959 150.215 26.3633C153.154 26.1287 156.116 26.3929 158.957 27.2996C162.912 28.5635 166.574 30.8778 169.145 34.1642C172.14 37.9904 173.135 42.6314 172.78 47.4224L172.715 48.2363C172.363 52.4685 171.734 57.9121 168.262 60.6929C167.998 60.9043 167.706 61.0649 167.404 61.1621C169.641 64.996 171.477 69.2526 172.576 73.5515C176.769 89.9713 173.545 107.095 168.503 122.921C168.088 124.225 166.117 125.091 165.114 123.817C163.322 121.539 160.719 119.801 157.791 119.476C155.985 119.275 154.187 119.639 152.48 118.818C151.81 118.495 151.164 117.967 150.699 117.324C147.817 118.417 144.714 118.933 141.636 118.806C136.584 118.599 131.184 116.849 127.709 113.011C127.151 112.395 127.01 111.703 127.138 111.079C127.574 110.924 128.022 110.808 128.483 110.735C132.89 113.334 137.747 115.07 142.968 115.179C145.985 115.242 148.928 114.82 151.374 112.936C151.903 112.528 152.39 112.076 152.84 111.591C157.954 108.3 161.559 102.71 163.274 96.7218C164.871 91.1379 164.674 85.3237 164.125 79.5961L163.835 76.5737C163.413 72.1376 163.021 67.6883 162.911 63.2334L162.944 63.2317C164.024 63.1619 164.032 61.4705 162.944 61.5409C160.13 61.7231 157.338 61.2613 154.533 61.4625C154.509 60.1358 154.414 58.8151 154.024 57.5356C153.801 56.8045 152.529 56.6604 152.394 57.5356C152.214 58.7065 152.148 59.8708 152.128 61.0469C147.93 60.9912 143.736 60.6378 139.537 60.783C138.763 59.9566 138.516 58.4913 138.154 57.472C138.101 57.3219 138.048 57.174 137.993 57.0239C137.675 58.4805 137.224 59.9052 136.63 61.2999L135.6 61.3034C129.758 61.3308 123.796 61.5055 118.091 62.7194C117.695 62.4148 117.459 61.8835 117.395 61.401C116.981 58.2612 116.39 55.2049 115.344 52.2128L115.194 51.7906C115.182 51.7556 115.169 51.7184 115.155 51.6793C114.384 52.9248 113.464 54.0857 112.46 55.1668C111.868 55.804 111.248 56.4133 110.611 57.0053C109.993 57.6922 109.354 58.3687 108.735 59.0577C108.759 59.1831 108.78 59.3103 108.797 59.4398C108.987 60.8696 109.006 62.3197 108.867 63.755C108.616 66.3497 107.884 68.85 106.708 71.163L106.671 71.3946C106.492 72.4786 106.238 73.5988 105.644 74.4151C106.385 75.2452 106.956 76.2369 107.286 77.3387C107.581 78.3195 106.224 79.1696 105.521 78.3669C104.962 77.7292 104.341 77.2015 103.659 76.7805C103.616 76.839 103.538 76.8678 103.451 76.819C101.552 75.7643 98.3258 76.0835 96.4286 77.0768C94.0687 78.3111 93.1476 80.8452 93.4096 83.4131C93.661 85.8669 94.7342 88.7349 96.8152 89.9924C97.7702 90.5694 98.5138 90.618 99.5279 90.3412C99.8521 90.2531 100.254 89.9828 100.427 89.8486L100.596 89.7125C101.261 89.1868 101.88 88.8269 102.665 88.8131C103.468 88.5627 104.275 88.9101 104.582 89.752L104.6 89.8064C104.744 90.2355 105.006 90.7744 104.949 91.4296C104.89 92.1313 104.569 92.7696 104.089 93.2831C104.007 93.3719 103.918 93.4607 103.827 93.5431C112.088 102.49 113.148 116.43 108.912 127.606C108.729 128.097 108.532 128.581 108.327 129.061C107.619 130.705 104.894 130.195 104.548 128.566C104.444 128.078 104.33 127.592 104.205 127.11C103.976 126.219 103.714 125.337 103.418 124.468L103.305 124.142C103.054 123.424 102.819 122.699 102.566 121.98L102.541 121.898C102.531 121.866 102.521 121.828 102.509 121.786L102.08 122.722L100.776 125.548C100.167 126.867 98.2285 126.15 98.1564 124.879L98.1547 124.836C98.1483 124.601 98.1399 124.369 98.1251 124.138C98.0321 122.411 97.7342 120.733 97.261 119.091L97.0903 119.303C94.5479 122.448 91.5641 125.395 87.4709 126.121C86.4441 126.302 85.2821 125.229 85.9878 124.191C86.2793 123.762 86.5603 123.322 86.8265 122.876C86.5962 122.769 86.3786 122.657 86.1779 122.542C84.6251 121.67 83.3321 120.427 82.2631 119.017C79.9962 116.029 79.1849 112.267 78.9864 108.585C78.7751 104.694 79.1173 100.592 80.18 96.8381C80.6406 95.2149 81.2638 93.6572 81.9842 92.1461C81.9335 92.0108 81.8849 91.8756 81.8364 91.7403C81.0589 89.5718 80.4209 87.3548 79.8906 85.1124C78.8216 80.5852 78.2469 75.9144 78.1772 71.2626C78.0504 62.929 79.4871 54.4623 82.5145 46.691C85.6413 38.6766 90.3441 30.956 96.7434 25.1333ZM92.85 97.9941C92.2759 97.0897 90.8393 97.9047 91.3724 98.8154L91.3923 98.848C92.3029 100.283 92.7296 101.915 93.2536 103.515C93.5895 104.544 95.2226 104.104 94.8824 103.064L94.7698 102.717C94.2485 101.095 93.7729 99.446 92.85 97.9941ZM97.8502 80.731L98.2317 80.5463C99.4349 79.9719 100.489 79.5807 101.911 80.0822C103.814 80.7522 105.853 82.8847 104.566 84.9538C104.093 85.7168 103.252 86.0211 102.386 85.8415C100.926 85.5385 100.549 84.223 99.808 83.1431L99.6805 82.9602C99.2287 82.3068 98.6573 81.4035 97.9052 81.1474C97.734 81.0882 97.6622 80.8219 97.8502 80.731ZM98.9237 36.8001L99.0465 36.6899C99.8641 35.9671 98.6641 34.7751 97.8508 35.4937C94.1282 38.7844 92.8353 43.935 90.9043 48.3247C90.4712 49.3118 91.9268 50.1741 92.3641 49.1786C94.2061 44.9897 95.4287 39.9789 98.9237 36.8001ZM143.658 35.3605C142.685 34.922 141.834 36.3381 142.769 36.8043L142.804 36.821C146.091 38.3067 147.49 41.6714 148.829 44.7952C149.256 45.7928 150.712 44.9326 150.289 43.9435L150.048 43.383C148.65 40.1638 147.02 36.8825 143.658 35.3605ZM148.81 33.3273C147.779 32.9701 147.337 34.6018 148.36 34.9589C151.146 35.929 153.058 38.0214 154.67 40.4139C155.275 41.31 156.739 40.4646 156.128 39.56C154.256 36.7829 152.034 34.4517 148.81 33.3273Z" fill="black"/>
<path fill-rule="evenodd" clip-rule="evenodd" d="M143.152 103.274C141.731 102.695 140.464 101.728 139.538 100.493C139.216 100.064 139.132 99.6102 139.2 99.1955C139.276 98.7293 139.552 98.3067 139.928 98.0232C140.305 97.7389 140.777 97.5986 141.233 97.6701C141.629 97.7322 142.024 97.9494 142.336 98.3997L142.401 98.4897C142.952 99.2351 143.67 99.8467 144.488 100.241C145.276 100.621 146.157 100.798 147.07 100.695C148.807 100.499 150.005 99.5588 151.277 98.2823C151.435 98.1212 151.593 97.9549 151.752 97.7861C151.852 97.633 151.991 97.5346 152.145 97.4829C152.317 97.4256 152.511 97.4289 152.688 97.4909C152.859 97.5507 153.013 97.664 153.115 97.8148C153.213 97.9581 153.268 98.1352 153.25 98.3388C153.134 99.6617 152.442 100.842 151.46 101.769C150.37 102.799 148.924 103.511 147.563 103.761C146.063 104.036 144.535 103.839 143.152 103.274ZM148.27 82.8665C149.866 83.8366 152.296 86.0987 150.58 88.5037C148.56 90.6243 145.651 88.1929 144.218 87.0933C142.889 86.2411 141.396 88.4329 142.629 89.428C152.986 97.099 157.189 83.1202 149.077 81.7259C148.184 81.5723 147.852 82.5664 148.27 82.8665ZM129.71 73.9431C129.886 71.7543 133.219 71.2573 133.55 73.4232C133.847 75.3634 133.498 77.1457 132.624 78.8925C131.789 80.5614 129.691 79.7828 129.533 78.2632C129.32 76.2262 129.6 75.3047 129.71 73.9431ZM155.076 72.9741C155.54 72.3654 156.211 71.9499 157.015 72.1847C159.526 72.9187 158.786 76.4849 157.904 78.2207C157.425 79.1633 155.876 79.4023 155.176 78.5724C154.035 77.2189 153.489 74.5159 154.939 73.1827C154.978 73.1138 155.022 73.0443 155.076 72.9741ZM132.589 64.3656L132.985 64.2962C134.212 64.0839 135.738 63.8799 136.606 64.8667C137.066 65.39 137.225 66.3627 136.606 66.8636C135.517 67.7449 134.314 67.4034 133.01 67.478C131.935 67.5397 130.902 67.7176 129.866 68.0138C127.595 68.6632 125.744 69.8489 123.804 71.1508C123.549 71.3216 123.289 70.9959 123.411 70.7577C124.531 68.5633 126.701 66.7607 128.875 65.6618C130.035 65.0753 131.305 64.5888 132.589 64.3656ZM152.787 63.3826L153.09 63.4448C156.394 64.1356 160.686 65.5156 162.251 68.7618C162.31 69.2208 162.247 69.3192 162.196 69.3835L162.179 69.4049C162.137 69.4597 162.103 69.5354 161.904 69.5979C161.849 69.5847 161.793 69.5708 161.737 69.556C161.02 69.368 160.452 69.109 159.903 68.8403L159.308 68.5468C158.617 68.2078 157.92 67.8812 157.181 67.6401C155.604 67.1257 153.983 66.7634 152.336 66.5699C151.979 66.5279 151.636 66.4074 151.364 66.2009C151.107 66.0049 150.91 65.7335 150.821 65.3727C150.705 64.9058 150.738 64.5524 150.988 64.1312C151.177 63.8148 151.446 63.5956 151.755 63.4697C152.071 63.3413 152.43 63.3111 152.787 63.3826Z" fill="black"/>
<path fill-rule="evenodd" clip-rule="evenodd" d="M166.085 84.7581C164.663 86.6698 162.025 87.2787 159.593 87.0684C154.347 86.5632 152.696 80.603 152.524 75.9704C156.042 76.9603 152.227 69.949 164.252 69.178C168.491 68.8246 167.322 71.3858 169.195 73.257C169.157 77.1844 168.503 81.4517 166.085 84.7581ZM141.098 80.2454C138.001 94.7552 121.041 91.3039 119.259 78.2242C120.904 77.0627 120.471 74.1944 122.515 73.1552C125.754 71.0848 129.803 71.1734 133.482 71.222C138.183 71.5451 139.523 73.4936 141.938 75.6193C141.822 77.0392 141.487 78.722 141.098 80.2454ZM172.803 66.7749C172.63 66.746 172.456 66.7187 172.281 66.6932C172.146 66.616 171.986 66.5566 171.801 66.5209C171.377 66.4133 170.956 66.3408 170.536 66.3017C164.508 64.9447 150.563 66.8715 149.988 72.0175C148.068 72.6585 146.407 72.0845 144.182 72.1416C142.489 65.0603 113.211 66.0597 111.803 70.329C111.797 70.3275 111.792 70.3263 111.787 70.3246C110.434 69.9057 108.439 70.0067 106.891 69.9403C103.584 69.871 100.274 70.1659 97.0385 70.8635C90.9804 71.8266 82.7124 72.9542 86.9257 80.5222C86.9266 80.5235 86.9272 80.525 86.9283 80.5262L86.9289 80.5256C87.655 81.2702 88.8873 80.6706 88.9332 79.6627C87.5166 76.0773 90.7161 75.6468 93.1778 74.6165C99.303 72.415 105.539 72.1099 111.874 72.7908C112.351 73.3522 113.074 73.8417 113.838 74.0978C118.074 74.8012 115.842 77.9444 118.519 78.4015C118.027 89.3584 131.325 95.3392 139.03 88.1366C142.106 85.1278 142.839 80.6706 143.552 76.653C143.93 76.5683 144.169 76.362 144.309 76.0889C145.216 75.1831 145.786 74.3466 147.58 74.0978C149.373 73.8493 150.754 74.3483 150.94 74.5011C150.988 74.596 151.038 74.6911 151.097 74.7862C151.179 74.928 151.29 75.0411 151.417 75.1301C149.646 86.0408 158.113 92.941 166.661 87.2821C170.375 83.787 171.16 78.436 171.315 73.6599C171.818 73.356 172.137 72.7669 171.963 72.0264C171.722 71.0055 172.286 70.1217 173.183 69.6778C174.348 69.1015 174.142 66.9967 172.803 66.7749Z" fill="black"/>
</g>
<defs>
<clipPath id="clip0">
<rect width="240" height="260" fill="white"/>
</clipPath>
</defs>
</svg>
