<svg width="287" height="330" viewBox="0 0 287 330" fill="none" xmlns="http://www.w3.org/2000/svg">
<g clip-path="url(#clip0)">
<path fill-rule="evenodd" clip-rule="evenodd" d="M225.032 222.605C224.238 220.291 225.397 217.983 226.04 215.744C228.324 207.981 230.818 200.217 234.347 192.977C235.683 190.555 233.484 187.584 230.936 188.267C226.575 188.916 222.077 188.399 217.707 188.113C216.109 183.723 211.845 181.903 208.488 179.375C204.679 176.85 200.974 173.951 197.012 171.738C196.792 169.647 194.404 169.129 192.944 170.624C188.933 167.975 184.124 168.467 179.824 166.732C176.558 161.125 176.313 155.23 175.448 149.821C175.071 147.463 175.471 145.188 173.954 143.086C168.857 135.474 148.717 132.174 141.292 136.685C137.295 134.038 137.199 138.832 136.564 141.79C135.858 143.27 135.476 144.947 135.594 146.713C131.301 156.235 121.479 160.539 112.682 164.026C111.578 162.899 110.001 163.041 108.951 163.974C101.326 165.734 93.9263 168.828 87.538 173.659C80.2801 175.912 75.1687 182.18 71.4726 188.901C71.0653 189.609 70.9693 190.332 71.0883 190.995C59.7223 208.685 54.2976 229.864 53.5356 251.254C46.2264 255.911 57.0097 297.753 59.5199 306.439C59.5224 306.438 59.5249 306.437 59.5275 306.436C61.156 309.497 63.0051 318.232 67.0807 317.557C69.8764 320.913 74.3317 320.253 78.1256 320.511C77.5077 323.028 77.8113 325.907 78.5468 328.394C79.4166 331.355 83.6852 331.455 84.2906 328.227C122.071 336.021 160.836 329.803 199.042 330.972C210.089 331.056 221.134 331.419 232.154 332.254C233.706 332.372 235.279 330.688 235.173 329.048C232.804 302.284 230.579 267.075 227.93 240.573C227.301 234.529 226.804 228.419 225.032 222.605Z" fill="white"/>
<path fill-rule="evenodd" clip-rule="evenodd" d="M137.187 138.337C137.295 138.023 137.737 138.064 137.745 138.417C137.919 145.942 136.155 155.138 130.484 160.221C127.572 162.831 123.723 164.025 120.189 165.397L119.79 165.553L113.545 168.023C111.889 168.678 110.102 169.686 108.639 168.761C109.823 171.878 110.817 175.081 112.259 178.085C114.054 181.824 116.224 185.246 118.879 188.358C129.401 200.687 146.052 204.447 160.995 200.835C168.69 198.975 176.177 195.449 181.427 189.019C185.417 184.132 187.709 177.572 188.249 171.101C188.091 171.128 187.926 171.127 187.756 171.087C185.865 170.65 183.956 169.573 182.293 168.518L182.132 168.416C180.532 167.393 178.863 166.22 177.715 164.631C176.574 163.052 175.376 157.902 175.376 157.902C175.05 155.967 174.744 152.111 174.797 150.155C174.801 149.971 175.573 149.862 175.655 150.053C176.368 151.714 176.598 155.363 177.148 157.092L177.259 157.437C177.847 159.242 178.35 161.44 179.568 162.899C181.855 165.639 185.305 166.799 188.385 168.174C188.606 165.077 193.264 165.149 193.205 168.379C193.202 168.554 193.195 168.728 193.189 168.903C193.556 169.117 193.909 169.363 194.24 169.599L194.562 169.832C195.782 170.713 197.011 171.55 198.31 172.297C200.824 173.744 203.486 174.892 206.063 176.205C208.669 177.535 211.107 179.118 213.383 181.013C214.452 181.903 215.477 182.851 216.449 183.858L216.713 184.134C217.639 185.113 218.843 186.207 219.37 187.493C219.486 187.777 220.068 188.436 220.384 188.458C225.279 188.799 230.164 189.28 235.029 190.002C236.288 190.188 236.786 190.877 236.32 191.992C234.721 195.822 228.458 211.118 226.793 215.223C226.987 218.239 226.724 221.789 226.9 224.806C227.156 229.208 227.492 233.608 227.894 237.998C229.334 253.701 231.517 269.327 233.49 284.961C234.477 292.785 235.378 300.621 236.266 308.459C236.715 312.419 237.095 316.384 237.389 320.362C237.511 322.019 237.621 323.678 237.719 325.337L237.803 326.809C237.92 328.661 238.186 330.43 237.107 332.019C236.617 332.74 235.5 333.146 234.856 332.327C234.047 331.297 233.747 330.528 233.669 329.175C233.61 328.14 233.596 327.099 233.552 326.063C233.456 323.816 233.335 321.57 233.193 319.326C232.911 314.839 232.589 310.353 232.216 305.874C230.908 290.167 228.422 274.578 226.768 258.91C225.935 251.011 225.342 243.097 225.029 235.154C224.872 231.188 224.815 227.222 224.852 223.252C224.866 221.769 224.932 220.293 225.028 218.82C222.55 224.797 219.945 230.717 217.221 236.557L216.576 237.941C214.85 241.632 213.078 245.338 211.003 248.818L210.647 249.411C209.806 250.825 208.658 253.054 207.126 253.5C206.059 253.811 204.754 253.592 203.66 253.57C202.574 253.548 201.486 253.543 200.401 253.496C199.183 253.444 198.022 253.274 196.845 252.937C196.65 252.882 196.465 252.821 196.296 252.744C195.111 254.803 193.097 256.372 191.038 257.286C189.388 258.018 187.659 258.52 185.928 258.984L185.316 259.147C183.46 259.638 181.336 259.872 180.289 261.775L180.046 262.216C179.268 263.621 178.521 264.854 177.233 265.86C175.846 266.944 174.203 267.626 172.566 268.157C170.891 268.7 169.176 269.115 167.474 269.561L167.011 269.683C165.887 269.982 164.754 270.255 163.637 270.58C163.161 270.719 162.676 270.861 162.209 271.032C161.662 271.232 161.264 271.543 160.832 271.882C160.444 273.322 158.786 274.104 157.422 274.003C156.706 273.951 156.063 273.693 155.479 273.314C154.458 274.237 153.335 275.063 152.295 275.917C150.838 277.114 149.376 278.302 147.905 279.479C144.874 281.905 141.819 284.299 138.733 286.646C133.254 290.812 127.657 294.787 121.964 298.615C119.591 300.211 117.201 301.805 114.788 303.36L115.046 303.462L115.557 303.667C116.764 304.145 118.109 304.918 118.343 306.414C118.529 307.6 117.905 308.418 116.802 308.563C115.491 308.735 114.47 307.751 113.654 306.812C113.294 306.398 112.891 306.014 112.546 305.587C112.405 305.413 112.297 305.213 112.201 305.002C109.82 306.492 107.414 307.932 104.969 309.279L104.357 309.613C98.2941 312.905 92.3932 316.511 86.279 319.709C84.6841 320.544 82.7395 321.446 80.7126 322.062C81.2504 324.276 81.2421 326.706 81.2557 328.953C81.2686 331.142 77.9916 331.132 78.0608 328.953L78.0942 327.9C78.1539 326.131 78.2513 324.294 78.6467 322.572C72.6746 323.624 66.7086 321.338 65.5978 320.652C64.3718 319.895 63.2589 318.684 62.3327 317.56C60.3507 315.154 58.9753 312.271 57.7551 309.371C55.1413 303.159 53.2894 296.519 51.9355 289.879C46.9441 265.397 49.091 239.193 57.197 215.725C59.2222 209.861 61.6132 204.127 64.3531 198.6L64.6933 197.917C67.4274 192.451 70.4661 187.006 74.3261 182.355C78.3466 177.511 83.3062 173.743 88.7061 170.819C91.3414 169.392 94.053 168.155 96.8245 167.059C97.2696 166.883 97.7178 166.725 98.167 166.574C101.055 164.619 104.56 162.749 108.067 162.822C108.305 162.827 108.498 162.923 108.642 163.067C108.811 163.099 108.98 163.137 109.149 163.189C109.523 163.304 109.918 163.739 109.864 164.186L109.846 164.334C109.836 164.407 109.824 164.477 109.802 164.546C109.927 164.565 110.05 164.597 110.171 164.641C113.526 163.635 116.827 162.096 120.1 160.855L120.846 160.576C123.588 159.556 126.401 158.556 128.65 156.537C130.888 154.528 132.57 151.926 133.787 149.114C135.285 145.648 135.956 141.894 137.187 138.337ZM204.354 321.103C205.018 320.578 205.804 321.187 206.052 321.836C206.868 323.968 206.465 327.279 205.315 329.164C204.123 331.116 201.27 330.346 201.201 327.981C201.129 325.515 202.479 322.585 204.354 321.103ZM211.215 262.251C211.275 261.974 211.68 261.977 211.741 262.251C212.294 264.752 212.281 267.445 212.443 270.01L212.462 270.294C212.657 273.122 212.821 275.957 212.937 278.789C213.166 284.362 213.44 289.936 213.747 295.504C213.9 298.266 214.063 301.027 214.237 303.787C214.782 303.464 215.344 303.181 215.926 302.931C216.798 302.557 217.647 302.514 218.584 302.524C219.725 302.536 220.585 303.602 220.433 304.789C220.269 306.082 219.197 306.636 218.084 306.451C216.851 306.246 215.613 305.929 214.368 305.798C214.506 307.932 214.65 310.066 214.802 312.198C215.003 315.021 215.265 317.841 215.45 320.665C215.468 320.935 215.486 321.205 215.506 321.475C216.248 321.065 217.036 320.856 217.93 320.597L218.162 320.528C219.459 320.133 220.847 319.586 222.047 320.512C222.854 321.134 223.015 322.159 222.347 322.98C221.333 324.226 219.834 323.984 218.434 323.921L217.68 323.892C216.971 323.862 216.316 323.814 215.66 323.624C215.78 325.464 215.843 327.311 215.631 329.124C215.516 330.104 214.301 330.361 213.979 329.361C213.139 326.748 212.966 323.931 212.658 321.194C212.371 318.639 212.197 316.064 212.009 313.497L211.952 312.727C211.529 307.08 211.191 301.429 210.943 295.77C210.696 290.111 210.548 284.454 210.488 278.789C210.462 276.218 210.502 273.637 210.597 271.065L210.627 270.294C210.736 267.649 210.659 264.843 211.215 262.251ZM100.199 321.52C100.231 321.158 100.504 320.709 100.909 320.765C101.283 320.817 101.668 320.792 102.037 320.858C102.525 320.943 102.918 321.249 103.371 321.442C104.109 321.755 104.913 321.917 105.67 322.173C107.089 322.654 107.863 324.241 107.275 325.722C106.657 327.28 105.103 327.634 103.761 326.98C102.703 326.465 101.914 325.641 101.203 324.688L101.001 324.417C100.695 324.007 100.347 323.55 100.218 323.054C100.093 322.571 100.155 322.011 100.199 321.52ZM169.169 314.196C170.937 313.932 172.447 314.574 174.083 315.179L174.216 315.228C175.881 315.838 178.311 316.26 179.165 318.07C179.679 319.161 179.28 320.61 178.068 320.933C176.149 321.444 174.428 319.955 172.841 318.953L172.758 318.9C171.227 317.948 169.646 317.147 168.668 315.504C168.407 315.066 168.633 314.276 169.169 314.196ZM107.444 164.889C106.736 165.057 106.027 165.206 105.32 165.35C102.628 166.881 100.015 168.471 97.2357 169.836C94.2869 171.284 91.3489 172.78 88.5479 174.532C82.889 178.072 78.224 182.674 74.3692 188.315C67.7106 198.059 62.7575 209.296 59.2127 220.699C58.302 223.628 57.4869 226.59 56.7659 229.577C58.0407 228.325 59.55 227.556 61.2424 226.897C61.9597 226.618 62.8525 227.09 63.2161 227.75C63.3795 228.046 63.4717 228.339 63.4548 228.686C63.4172 229.453 62.9473 230.324 62.1717 230.476C60.3635 230.829 58.6054 231.518 56.8619 232.124C56.5976 232.216 56.3705 232.182 56.1891 232.073C54.4583 239.858 53.3755 247.802 52.992 255.795C52.6676 262.561 52.8677 269.381 53.5735 276.138C54.116 275.879 54.6465 275.636 55.2412 275.489C56.0125 275.299 56.7712 275.067 57.5236 274.805C59.6948 274.049 60.6851 277.855 58.4659 278.435C57.64 278.651 56.8091 278.83 55.9676 278.961C55.2341 279.075 54.5854 279.025 53.8939 278.905C54.4222 283.121 55.1437 287.306 56.0628 291.431L56.2656 292.334C57.4595 297.603 58.851 302.922 60.8632 307.901C61.8503 310.344 63.1572 312.663 64.7708 314.7C65.5636 315.701 66.4436 316.56 67.4031 317.373C68.2019 318.051 70.9174 319.519 74.1334 319.519C77.3494 319.519 78.2201 319.196 79.8426 318.603C83.0514 317.431 86.098 315.558 89.1073 313.891L89.4185 313.719C90.7491 312.988 92.0747 312.247 93.3968 311.498C93.2298 310.067 93.5221 308.865 94.2245 307.543C94.9836 306.113 96.8648 306.825 97.0046 308.288L97.0091 308.344C97.0303 308.673 97.0823 309.01 97.147 309.345C105.987 304.203 114.64 298.701 123.155 292.968C128.64 289.275 134.067 285.472 139.415 281.557C142.088 279.6 144.738 277.608 147.361 275.577C148.736 274.513 150.104 273.44 151.466 272.358C152.033 271.908 152.589 271.434 153.157 270.981C153.019 270.798 152.885 270.615 152.754 270.433C150.632 267.483 149.254 263.965 148.568 260.337C148.154 258.147 147.954 255.874 147.893 253.642L147.866 252.671C147.824 251.036 147.813 249.324 148.097 247.74C147.711 247.965 147.316 248.186 146.923 248.423C145.511 249.272 144.099 250.119 142.683 250.962C139.85 252.65 137.008 254.318 134.13 255.919C128.989 258.779 123.798 261.499 118.466 263.937L115.872 265.124C111.37 267.18 106.831 269.199 102.15 270.728C99.5092 271.589 96.8489 272.326 94.1706 272.984L95.2537 274.331C95.9881 275.245 96.001 276.555 95.0625 277.324C94.1398 278.08 92.9019 277.765 92.2872 276.761L91.1667 274.931C90.9272 274.54 90.7913 274.174 90.7143 273.788C89.4806 274.062 88.2436 274.325 87.0033 274.58L84.6586 275.055C81.3106 275.741 78.0644 277.1 75.0718 278.838C74.0314 279.443 73.7416 278.268 74.8439 277.45C78.0669 275.058 81.8265 273.704 85.7056 272.568L85.8962 272.512C87.3193 272.098 88.7399 271.667 90.1574 271.22C90.0016 270.621 89.9116 270 89.9296 269.315C89.9695 267.789 90.0966 266.257 90.1729 264.732C90.333 261.532 90.5374 258.341 90.7769 255.146C90.8689 253.915 90.972 252.681 91.0899 251.448C90.3298 251.015 89.6742 250.441 88.8266 250.158L88.6835 250.114C87.7771 249.855 88.083 248.614 88.8882 248.508C89.6176 248.412 90.3434 248.456 91.0624 248.62C91.1738 248.646 91.2792 248.675 91.3797 248.707C91.5119 247.565 91.6584 246.426 91.8249 245.293C92.2652 242.3 92.5767 239.146 93.4933 236.27C93.5613 236.057 93.8591 235.981 93.9695 236.204C95.3029 238.898 95.3493 242.202 95.4996 245.201L95.5182 245.559C95.6953 248.832 95.7054 252.136 95.6483 255.412C95.5897 258.789 95.4808 262.157 95.3381 265.531C95.2807 266.889 95.283 268.299 95.065 269.598C103 266.859 110.795 263.581 118.266 259.699C123.536 256.961 128.761 254.113 133.926 251.158C136.515 249.678 139.115 248.222 141.7 246.736C142.606 246.215 143.511 245.693 144.416 245.169L145.773 244.384C147.042 243.648 148.102 242.916 149.581 242.864C150.022 242.849 150.417 243.068 150.698 243.4C151.493 242.802 152.411 242.434 153.376 242.443C154.827 240.314 156.3 238.204 157.832 236.139L158.964 234.61C160.923 231.972 162.998 229.294 165.496 227.287C166.611 226.391 167.837 225.719 169.116 225.164C168.815 225.086 168.521 224.929 168.258 224.67C167.037 223.467 166.868 221.234 166.62 219.556C166.363 217.815 166.462 216.258 166.716 214.523C166.815 213.849 167.867 213.709 168.123 214.328C168.664 215.633 169.237 216.885 169.729 218.205L169.874 218.603C170.403 220.089 171.528 221.652 171.454 223.265C171.434 223.706 171.294 224.091 171.079 224.401C172.152 224.022 173.241 223.685 174.313 223.333C177.688 222.226 181.075 221.15 184.515 220.291C185.43 220.063 186.35 219.85 187.274 219.656C187.758 217.216 188.464 214.821 189.295 212.469C188.508 212.04 187.998 211.322 187.32 210.684C186.685 210.085 186.249 209.357 185.708 208.67C185.215 208.046 185.492 206.917 186.378 206.953L186.629 206.964C187.546 207.01 188.435 207.111 189.267 207.565L189.564 207.727C189.97 207.952 190.415 208.208 190.812 208.512C191.33 207.246 191.869 205.992 192.413 204.751L193.12 203.146C194.952 198.969 196.779 194.633 199.08 190.743C200.102 189.014 201.463 187.934 203.417 187.767C205.428 187.595 207.519 187.817 209.534 187.894C211.869 187.982 214.203 188.088 216.536 188.218C215.938 187.553 215.393 186.812 214.792 186.174C213.795 185.116 212.742 184.113 211.635 183.185C209.444 181.35 207.034 179.838 204.532 178.536C202.029 177.234 199.453 176.098 197.103 174.489C195.616 173.471 194.287 172.19 193.075 170.804C192.312 179.546 188.336 187.668 182.363 193.77C176.159 200.108 167.586 203.59 159.199 205.071C150.645 206.581 141.717 206.027 133.534 202.87C129.314 201.242 125.267 198.916 121.658 195.999C121.619 196.253 121.571 196.504 121.477 196.739C121.352 197.056 121.198 197.326 121.021 197.604L120.707 198.093C120.508 198.4 120.306 198.704 120.081 198.989C119.535 199.679 118.762 199.981 117.93 199.978C116.336 199.972 115.129 198.313 115.558 196.671C115.828 195.64 116.404 195.019 117.305 194.616C117.589 194.488 117.879 194.381 118.171 194.276L118.39 194.197C118.685 194.09 118.977 193.988 119.281 193.928C117.572 192.327 115.986 190.585 114.567 188.706C110.113 182.812 105.721 174.558 107.21 166.73C107.235 166.596 107.349 166.512 107.472 166.49C107.559 165.941 107.834 165.409 108.211 165.052C107.957 164.981 107.701 164.926 107.444 164.889ZM153.687 300.221C154.569 299.7 155.48 300.938 154.763 301.702L153.693 302.839C152.7 303.898 151.733 304.969 150.883 306.177L150.677 306.472C149.53 308.13 148.306 310.05 146.426 310.67C144.152 311.419 141.966 308.478 143.283 306.329C144.434 304.451 146.649 303.743 148.559 302.967C150.366 302.232 151.998 301.218 153.687 300.221ZM80.3198 291.555C80.8379 290.835 82.1891 291.215 81.8351 292.234C80.6853 295.544 80.2167 300.057 77.3128 302.256C76.376 302.965 74.9044 302.639 74.1331 301.82C73.2567 300.889 73.2216 299.579 73.7228 298.444C74.3341 297.059 75.8377 296.055 76.8916 295L76.9862 294.904C78.12 293.734 79.3463 292.909 80.3198 291.555ZM201.686 295.365C202.61 294.941 205.021 294.118 205.735 295.093C205.769 295.128 205.797 295.167 205.82 295.21C205.995 295.534 206.021 295.989 205.82 296.31C204.988 297.638 204.121 298.63 202.937 299.575L202.804 299.68C201.516 300.686 200.306 301.867 198.736 302.321C196.56 302.95 195.04 300.057 196.568 298.368C197.799 297.007 199.679 296.3 201.31 295.542L201.686 295.365ZM114.301 276.453C113.937 275.755 114.68 274.898 115.354 275.335C117.275 276.582 119.513 277.517 121.672 278.189C122.545 278.461 123.333 279.401 123.268 280.415L123.258 280.569C123.232 280.927 123.186 281.283 122.971 281.581C122.219 282.624 121.144 283.027 119.996 282.409C117.437 281.032 115.685 279.11 114.301 276.453ZM170.457 274.338C170.41 274.044 170.613 273.817 170.894 273.874C172.518 274.201 174.017 275.033 175.412 275.99C176.16 276.504 176.881 277.068 177.627 277.586C178.549 278.226 178.894 278.755 179.03 279.93C179.12 280.705 178.438 281.413 177.813 281.628C176.108 282.211 174.156 280.296 173.001 279.052L172.949 278.996C171.741 277.688 170.744 276.141 170.457 274.338ZM219.225 272.306C218.855 271.244 220.13 270.365 220.964 270.886C221.75 271.376 222.602 271.783 223.343 272.346C224.024 272.863 224.645 273.475 225.298 274.035L225.62 274.306C226.818 275.329 228.795 277.857 227.082 279.323C225.453 280.719 223.292 278.936 222.198 277.633L222.122 277.541C221.493 276.769 220.717 275.93 220.26 275.029C219.831 274.18 219.539 273.206 219.225 272.306ZM203.154 190.154C201.113 190.575 200.281 193.25 199.421 194.993C197.393 199.108 195.527 203.299 193.654 207.495C193.077 208.785 192.515 210.086 191.949 211.384C191.914 211.485 191.87 211.585 191.817 211.684C190.656 214.338 189.461 216.975 188.064 219.494C189.343 219.239 190.628 219.023 191.918 218.852C191.853 217.562 192.685 215.836 193.096 214.75L193.131 214.659C193.644 213.267 194.182 211.075 195.502 210.353C195.942 210.112 196.413 210.413 196.447 210.928C196.547 212.46 195.136 214.213 194.446 215.513C194.029 216.299 193.623 217.089 193.227 217.888C193.078 218.187 192.954 218.48 192.802 218.744C193.467 218.667 194.133 218.599 194.801 218.55L195.237 218.518C197.713 218.345 200.343 218.295 202.581 219.592C204.657 220.794 205.718 223.362 204.577 225.7C203.156 228.612 200.028 228.998 197.276 229.234C193.84 229.528 190.396 230.06 186.984 230.578C183.454 231.114 180.131 232.495 176.654 233.205C176.33 233.271 176.129 232.822 176.426 232.631C179.168 230.858 182.502 229.883 185.569 228.889L185.817 228.809C187.48 228.266 189.105 227.646 190.826 227.339C192.496 227.04 194.177 226.798 195.861 226.614L196.025 226.598C197.88 226.433 202.611 226.489 202.411 223.574C202.279 221.644 199.325 221.311 197.976 221.288C191.793 221.182 185.565 222.925 179.689 224.792L178.377 225.21C175.971 225.978 173.562 226.769 171.201 227.67C168.525 228.691 166.417 230.283 164.469 232.462C162.308 234.879 160.216 237.349 157.974 239.684C156.561 241.156 155.13 242.601 153.687 244.035C153.361 244.483 153.1 244.971 152.92 245.603C152.615 246.671 152.685 247.664 152.8 248.761C153.091 251.532 153.155 254.331 153.519 257.093C153.856 259.652 154.328 262.305 155.329 264.679C155.725 265.619 156.241 266.542 156.828 267.368L157.302 268.022C157.509 268.306 157.74 268.617 157.983 268.91C158.339 268.448 158.854 268.148 159.453 268.223C160.726 268.383 161.727 268.344 162.976 268.034C163.942 267.794 164.902 267.512 165.864 267.252C167.753 266.74 169.661 266.274 171.531 265.687L171.852 265.584C173.246 265.13 174.64 264.561 175.8 263.606C177.148 262.495 177.563 260.894 178.561 259.509C180.693 256.551 185.3 256.613 188.419 255.803C191.07 255.115 193.621 254.029 195.455 251.987L195.562 251.865C195.481 251.501 195.613 251.089 195.931 250.9L196.001 250.859C196.125 250.786 196.259 250.755 196.39 250.758C196.561 250.492 196.725 250.218 196.874 249.926C196.997 249.686 197.304 249.863 197.264 250.101C197.24 250.242 197.206 250.381 197.175 250.52C198.952 250.034 200.903 250.127 202.707 250.128L205.049 250.12C205.454 250.114 206.058 250.093 206.112 250.067L206.167 250.041C206.313 249.973 206.105 250.085 206.207 249.941C206.32 249.782 206.43 249.622 206.539 249.46C206.927 248.884 207.294 248.29 207.653 247.691C203.733 248.751 199.671 249.411 195.668 249.961C191.373 250.552 187.021 250.962 182.688 250.966C181.494 250.968 181.505 249.053 182.688 249.005C187.277 248.819 191.841 248.561 196.399 247.937C198.756 247.613 201.103 247.208 203.437 246.734C204.338 246.551 205.237 246.357 206.133 246.152L206.805 245.996C207.227 245.897 208.418 245.755 208.999 245.341C209.114 245.132 209.228 244.924 209.341 244.716C209.285 243.985 207.535 244.083 207.125 244.082C205.961 244.08 204.798 244.09 203.634 244.093C201.307 244.1 198.98 244.079 196.653 244.059C192.003 244.018 187.336 243.846 182.69 244.057C181.562 244.108 180.97 242.188 182.085 241.683C187.006 239.452 192.468 238.967 197.723 238.281C200.486 237.921 203.25 237.505 205.952 236.775L206.619 236.594C208.316 236.133 210.19 235.569 211.619 234.469C209.471 233.546 206.802 233.652 204.576 233.521L204.405 233.511C201.288 233.307 198.165 233.203 195.042 233.199C188.652 233.189 182.259 233.429 175.876 233.751C175.716 233.759 175.683 233.491 175.838 233.455C182.399 231.935 189.067 231.202 195.781 231.09C198.908 231.037 202.037 231.084 205.161 231.231L206.307 231.287C208.971 231.409 211.927 231.442 214.156 233.15C214.495 233.41 214.675 233.743 214.703 234.094C217.692 227.768 220.452 221.31 223.224 214.894C225.379 209.906 227.453 204.875 229.686 199.926L230.409 198.325C231.378 196.188 232.369 194.051 233.471 191.992C229.352 191.407 225.211 191.002 221.067 190.691C217.292 190.408 204.972 189.78 203.154 190.154ZM201.331 258.718C201.8 258.441 202.52 258.667 202.636 259.282C202.722 259.74 202.869 260.248 202.869 260.716C202.869 261.278 202.68 261.887 202.579 262.436C202.347 263.699 202.062 264.724 201.457 265.849C201.079 266.552 200.316 267.03 199.548 267.011C198.94 266.997 198.402 266.823 197.984 266.324C197.485 265.725 197.142 264.845 197.416 264.039C198.134 261.928 199.454 259.825 201.331 258.718ZM101.715 256.612C102.814 254.568 105.419 252.742 107.692 252.922C111.106 253.194 111.802 258.074 108.497 259.238C106.522 259.934 103.804 259.22 102.076 258.074C101.61 257.766 101.44 257.124 101.715 256.612ZM66.6337 249.63C66.3841 249.244 66.7967 248.804 67.1686 248.891C67.9935 249.083 68.8828 249.167 69.6907 249.428C70.5181 249.696 71.319 250.139 72.1385 250.444C73.8555 251.082 75.6894 251.403 77.351 252.174C78.0152 252.482 78.5377 253.503 78.4763 254.256L78.4606 254.432C78.4239 254.806 78.3629 255.132 78.166 255.474C77.6373 256.39 76.5896 256.864 75.6007 256.582C73.7663 256.059 71.9738 254.715 70.4097 253.598L70.1207 253.394C69.4373 252.916 68.7025 252.416 68.1519 251.801C67.5771 251.158 67.1047 250.357 66.6337 249.63ZM129.692 242.196C129.481 241.389 130.427 240.856 130.978 241.401C132.08 242.491 133.233 243.502 134.312 244.62L134.384 244.696C135.157 245.521 136.282 247.11 135.276 248.177C133.988 249.544 132.195 247.515 131.504 246.458C130.628 245.117 130.102 243.765 129.692 242.196ZM214.025 235.521C212.39 237.359 209.871 238.204 207.653 238.905C205.024 239.735 202.315 240.23 199.603 240.638C196.982 241.032 194.381 241.384 191.802 241.836C193.753 241.862 195.704 241.877 197.65 241.914C199.895 241.957 202.139 242.009 204.382 242.078C206.017 242.128 207.934 241.89 209.487 242.535C209.767 242.651 210.029 242.812 210.257 243.008C211.563 240.543 212.814 238.044 214.025 235.521ZM113.185 218.327C114.892 217.752 116.496 216.988 118.305 217.186C118.786 217.239 119.13 217.736 118.868 218.227C118.011 219.828 116.617 220.733 115.244 221.804L115.123 221.899C113.621 223.085 112.009 224.166 110.376 225.14C107.563 226.815 105.043 222.019 107.883 220.612C109.592 219.765 111.387 218.934 113.185 218.327ZM143.906 214.164C146.517 214.346 149.126 214.47 151.74 214.582C154.767 214.712 153.75 219.659 151.22 218.658C148.722 217.669 146.223 216.692 143.702 215.769C142.934 215.488 142.996 214.15 143.858 214.162L143.906 214.164ZM76.95 205.363C77.6266 205.313 78.309 205.47 78.9866 205.539L79.7076 205.614C81.1938 205.771 82.5874 205.964 84.0048 206.607C86.6201 207.792 85.2154 212.256 82.59 212.153C80.6494 212.078 78.9901 211.193 77.3515 210.162C75.919 209.262 75.0408 208.135 74.0735 206.721C73.7531 206.253 74.1995 205.728 74.6358 205.681C75.4044 205.598 76.1812 205.42 76.95 205.363ZM208.05 196.247C207.617 199.114 206.543 201.802 204.924 204.141C204.111 205.317 202.683 205.362 201.876 204.141C200.736 202.415 201.439 200.437 202.298 198.779L202.553 198.294C202.937 197.566 203.528 196.504 204.203 195.771L204.215 195.696C204.576 192.694 208.496 193.293 208.05 196.247ZM102.463 177.845C103.113 177.223 104.312 177.41 104.523 178.423C104.819 179.841 104.999 181.44 104.805 182.88C104.7 183.66 104.661 184.536 104.372 185.264C104.061 186.046 103.463 186.647 102.9 187.235C101.776 188.409 99.4059 188.021 99.1047 186.171L99.0665 185.944C98.915 185.069 98.7213 184.134 98.9456 183.266C99.1149 182.612 99.4933 181.944 99.8063 181.337L99.8723 181.208C100.499 179.968 101.477 178.788 102.463 177.845ZM193.942 180.863L194.177 180.866C195.994 180.904 199.315 181.374 199.332 183.757C199.337 184.319 198.945 184.901 198.419 185.03C197.334 185.297 196.632 184.616 195.858 183.928C195.225 183.365 194.487 182.916 193.721 182.592C192.893 182.243 192.947 180.862 193.942 180.863Z" fill="black"/>
<path fill-rule="evenodd" clip-rule="evenodd" d="M197.079 87.9793C196.141 80.0334 193.195 71.597 190.097 64.1893C183.131 48.5271 167.182 46.3707 152.885 43.1415C138.776 40.9606 123.837 38.9914 109.941 43.3427C102.129 45.3747 99.0777 55.2534 100.311 63.049C101.014 67.9068 103.097 72.5044 104.873 77.0065C108.402 86.2521 110.642 96.1503 110.645 106.16C110.403 112.702 109.534 120.169 116.614 122.939C123.351 126.497 123.92 136.14 132.356 141.611C135.767 148.947 145.059 149.593 151.746 151.295C155.973 152.154 160.248 152.786 164.534 153.194C176.946 154.883 186.874 151.064 193.371 139.325C197.719 132.181 200.957 123.932 200.157 115.273C199.36 106.155 198.033 97.0849 197.079 87.9793Z" fill="white"/>
<path fill-rule="evenodd" clip-rule="evenodd" d="M152.992 24.1067C153.701 23.2542 154.792 23.5466 155.454 24.2208C155.886 24.3557 156.303 24.5563 156.698 24.8219C157.59 24.7004 158.525 24.7004 159.4 24.7345C159.612 24.6081 159.839 24.4957 160.087 24.3991C161.855 23.7127 163.421 24.0614 164.713 24.9804C165.335 24.3554 166.12 23.9632 167.124 24.0225C168.019 24.0756 168.658 24.5231 169.205 25.1124C169.75 24.2774 170.632 23.6816 171.73 23.5987C173.266 23.4828 174.741 24.1365 175.965 25.1486C176.677 24.2806 177.649 23.7816 178.732 23.7768C179.444 23.6395 180.196 23.6936 180.876 23.9115C181.862 24.2277 182.728 24.8203 183.418 25.5894C184.509 24.4799 185.845 23.6816 187.385 23.798C189.378 23.9509 191.03 25.507 191.798 27.4223C193.147 27.9961 194.393 28.8146 195.434 29.9815C195.489 30.0429 195.542 30.1073 195.598 30.1719C196.159 30.3916 196.687 30.7031 197.152 31.1132C198.625 32.4145 198.953 34.2976 198.465 36.143C198.534 36.4383 198.592 36.7387 198.645 37.0389C200.024 37.2616 201.277 38.1068 201.99 39.483C202.965 41.3715 202.773 43.8606 201.717 45.6635C201.263 46.439 200.687 47.0925 200.039 47.6639C200.771 49.429 200.42 51.5353 199.24 52.9629C198.953 53.4552 198.6 53.8994 198.202 54.3015C198.641 56.1264 197.861 58.0093 196.305 58.9844L196.172 59.3381C196.149 59.3969 196.127 59.4554 196.103 59.5134C196.086 59.5885 196.065 59.6612 196.044 59.7344C196.007 60.382 195.806 61.0175 195.407 61.6162C194.591 62.8432 193.579 63.6434 193.043 65.0759L192.989 65.2263C192.759 65.9042 192.014 66.3825 191.379 66.1733C194.903 73.8563 196.75 82.4052 198.018 90.7833C198.651 94.963 199.139 99.1571 199.534 103.367L199.923 107.56C200.264 111.287 200.568 115.026 200.57 118.765C200.575 127.223 198.296 135.359 193.405 142.089C188.779 148.452 182.233 153.063 174.838 154.879C167.204 156.752 158.248 156.014 151.401 151.728C149.382 150.467 151.151 147.435 153.205 148.45C157.093 150.37 161.044 151.798 165.354 152.117C169.556 152.43 173.767 151.872 177.751 150.413C184.343 147.996 189.951 142.934 193.557 136.631C195.333 133.524 196.619 130.152 197.303 126.59C198.156 122.149 198.027 117.56 197.714 113.063L197.692 112.756C197.073 104.091 196.257 95.3731 194.939 86.7946C193.773 79.2087 191.98 71.7765 189.653 64.5088C188.742 63.6568 187.722 62.9518 186.631 62.4164C178.641 62.062 170.636 62.1656 162.656 62.7509C155.851 63.2534 149.078 64.1034 142.356 65.3424L141.636 65.4766C140.148 65.758 138.496 65.919 137.094 66.555C135.891 67.1022 135.404 68.1538 135.101 69.4465C134.338 72.7165 134.221 76.2952 134.093 79.6484C133.966 82.9262 134.252 86.2313 134.004 89.4983C133.794 92.2318 133.135 95.0297 131.228 97.007C130.23 98.0422 129.002 98.6082 127.85 99.3942C127.105 99.9014 126.789 100.424 126.885 101.363C127.092 103.418 128.651 106.007 126.9 107.766C126.592 108.075 126.059 108.115 125.755 107.766C125.033 106.932 124.035 106.296 123.178 105.623C122.82 105.344 123.118 104.802 123.525 104.995C124.06 105.25 124.606 105.551 125.164 105.814C123.931 104.735 122.178 104.207 120.718 103.893C119.983 103.737 119.209 103.692 118.444 103.764C117.878 104.051 117.3 104.317 116.721 104.577C115.986 104.904 115.243 105.202 114.495 105.484C111.901 107.729 110.663 111.38 111.203 114.95C111.499 116.922 112.355 119.065 113.97 120.216C115.882 121.579 118.444 120.994 120.511 122.005C122.446 122.952 123.623 124.865 124.505 126.845L124.872 127.669C125.691 129.494 126.532 131.27 127.65 132.931C128.944 134.854 130.528 136.582 132.256 138.066C133.094 138.784 133.988 139.43 134.911 140.018L135.164 140.177C136.099 140.759 136.768 141.314 136.831 142.545C136.851 142.974 136.596 143.366 136.268 143.589C134.853 144.541 133.446 143.35 132.268 142.518C130.998 141.622 129.783 140.614 128.658 139.514C126.521 137.427 124.672 134.949 123.249 132.258C122.165 130.209 121.549 127.325 119.836 125.737C118.79 124.768 117.312 124.76 116.006 124.583C114.791 124.417 113.641 124.149 112.56 123.513C108.162 120.919 106.919 114.639 107.962 109.787C108.139 108.968 108.386 108.171 108.692 107.404C107.055 107.694 105.216 105.897 105.88 104.083C105.931 103.946 105.989 103.818 106.044 103.686C104.966 102.932 104.114 101.79 103.71 100.295C103.503 99.5229 103.473 98.7423 103.581 97.9885C103.058 97.6159 102.626 97.1033 102.348 96.4729C101.479 96.0464 100.709 95.4082 100.249 94.4961C99.6122 93.2378 99.693 92.0789 100.178 91.0354C100.11 90.9042 100.044 90.7701 99.981 90.633C98.1999 89.4342 96.9569 87.3684 97.0984 85.0775C97.1439 84.3184 97.3207 83.6343 97.5936 83.0176C97.5708 82.9398 97.5481 82.8591 97.5279 82.7813C96.0373 81.9765 94.8044 80.6543 94.3648 78.8892C93.9252 77.1131 94.4431 75.3427 95.4789 73.9799C93.9631 72.8026 93.0511 71.1582 93.6044 68.6712C93.8292 67.6602 94.2814 66.7398 94.8928 65.9646C94.8903 65.9407 94.8852 65.9165 94.8802 65.8921L94.7384 65.7753C92.867 64.2074 91.7913 62.2093 92.9399 59.7518C93.4553 58.6469 94.1905 57.8768 95.0545 57.3698L95.0975 57.2249V57.2249C94.4785 55.8166 94.2688 54.2527 94.6958 52.6083C95.0444 51.2539 95.8705 50.1752 96.9266 49.4593C96.8558 48.8528 96.8659 48.2065 96.9796 47.5061C97.1691 46.3234 97.7224 45.2906 98.5308 44.5583C98.5612 44.4024 98.5991 44.2498 98.642 44.0966C98.9149 43.1607 99.4252 42.144 100.016 41.39C100.504 40.7649 101.05 40.5369 101.717 40.5128C101.676 39.9363 101.704 39.3513 101.815 38.7584C102.156 36.9292 103.253 35.2094 104.877 34.4288C105.544 34.1096 106.246 34.016 106.924 34.0935C107.5 32.8059 108.624 31.8726 110.006 31.6715C110.544 31.591 111.044 31.5961 111.504 31.6688C111.764 31.5397 112.035 31.4247 112.317 31.3198C112.504 31.25 112.694 31.1857 112.883 31.1215C113.523 30.2792 114.364 29.6056 115.347 29.2009C116.481 28.7314 117.636 28.7794 118.659 29.1738L118.985 29.1013V29.1013C119.495 28.1625 120.308 27.4355 121.559 27.1055C122.979 26.7327 124.437 27.2531 125.553 28.2003C125.558 28.2003 125.563 28.2003 125.571 28.1973C126.155 26.8105 127.153 25.8448 128.828 25.9118C129.871 25.9547 130.813 26.5049 131.541 27.2882C131.945 27.2343 132.349 27.186 132.756 27.138C133.186 26.6039 133.663 26.1052 134.191 25.6572C135.055 24.922 136.179 24.9812 136.816 26.0164C136.955 26.2418 137.084 26.4698 137.213 26.6978L137.796 26.6549V26.6549C138.483 25.6704 139.421 25.0051 140.704 24.9517C141.881 24.9005 142.72 25.5124 143.359 26.3678C143.88 26.3544 144.403 26.344 144.926 26.3357C145.535 25.5872 146.252 24.9273 147.071 24.3801C147.697 23.9616 148.622 24.1041 149.13 24.662C149.473 25.0413 149.792 25.4373 150.089 25.8472C150.854 24.9362 151.888 24.3361 152.992 24.1067ZM115.809 109.29C116.989 108.577 118.575 109.349 119.717 109.955C121.109 110.693 122.491 111.806 123.343 113.201C124.502 115.1 121.776 116.635 120.556 114.931C119.806 113.883 119.207 112.826 118.297 111.908C117.466 111.066 116.261 110.503 115.784 109.392C115.766 109.355 115.771 109.312 115.809 109.29ZM116.639 63.1907L116.661 63.1238C116.996 62.1492 115.532 61.7291 115.199 62.6956C114.695 64.1606 115.276 65.7532 116.639 66.3857C117.017 66.5611 117.448 66.5002 117.676 66.0971C117.867 65.7577 117.778 65.1697 117.404 64.9962C116.637 64.6402 116.38 64.0118 116.639 63.1907V63.1907ZM104.022 60.4657C104.755 59.779 103.68 58.644 102.95 59.3278C102.27 59.9657 101.765 60.8321 101.896 61.8287C102.03 62.8443 102.751 63.5613 103.54 64.0681C104.377 64.6054 105.14 63.2142 104.305 62.6782L104.212 62.6174C103.861 62.3864 103.451 62.0688 103.392 61.6144C103.329 61.1315 103.714 60.7546 104.022 60.4657ZM108.184 48.3483L108.236 48.3077C109.023 47.7111 108.267 46.3146 107.471 46.9179C106.741 47.4713 106.155 48.1902 106.093 49.1817C106.034 50.1453 106.495 50.9806 107.099 51.6585C107.771 52.4125 108.842 51.273 108.171 50.5205C107.518 49.7872 107.39 48.987 108.184 48.3483V48.3483Z" fill="black"/>
<path fill-rule="evenodd" clip-rule="evenodd" d="M180.065 127.344C180.24 127.294 180.395 127.544 180.249 127.681C179.655 128.241 179.277 129.285 178.843 129.997C178.43 130.674 178.032 131.344 177.669 132.053C177.262 132.847 176.869 133.638 176.552 134.479L176.49 134.648V134.648C176.584 134.888 176.659 135.125 176.713 135.28L176.729 135.324C177.27 136.791 176.134 138.422 174.853 138.832C172.662 139.534 170.782 137.623 170.729 135.35C170.688 133.563 171.829 131.97 172.989 130.788C174.003 129.755 175.139 128.875 176.41 128.23C176.97 127.946 177.553 127.708 178.161 127.571C178.784 127.43 179.455 127.519 180.065 127.344ZM175.936 133.823C176.096 133.903 176.234 134.1 176.349 134.329C176.291 134.135 176.172 133.941 175.936 133.823ZM177.307 108.984C179.214 110.216 182.121 113.087 180.069 116.139C177.653 118.831 174.175 115.745 172.461 114.349C170.872 113.268 169.086 116.049 170.561 117.312C182.946 127.049 187.972 109.306 178.272 107.537C177.204 107.342 176.807 108.603 177.307 108.984ZM161.624 97.1613L161.961 97.1312C163.423 96.9944 164.904 96.7859 166.346 97.1371C168.282 97.6092 168.141 100.601 166.346 101.152C164.763 101.636 163.01 101.426 161.377 101.443C161.12 101.446 160.864 101.453 160.607 101.457C160.557 102.106 160.356 102.665 160.05 103.223C159.83 103.624 159.549 104.005 159.274 104.361C158.618 105.207 157.071 105.188 156.409 104.361C155.919 103.748 155.529 103.044 155.523 102.216C155.522 102.003 155.546 101.778 155.594 101.557L154.702 101.573C152.521 101.608 150.322 101.593 148.18 101.225C147.418 101.392 146.795 99.9323 147.847 99.4953C150.706 98.308 153.9 97.9585 156.934 97.602C158.493 97.4185 160.061 97.2922 161.624 97.1613ZM185.982 95.9343L186.059 95.9261C187.951 95.7204 190.037 95.3641 191.933 95.5691C194.763 95.8746 194.759 99.9375 191.933 100.241C190.896 100.353 189.803 100.299 188.713 100.192C189.27 101.447 188.609 102.946 187.267 103.137C186.019 103.315 184.726 102.028 185.136 100.648L185.155 100.587C185.235 100.347 185.306 100.079 185.391 99.8152L184.94 99.7748C183.591 99.6481 181.718 99.3895 181.221 98.2583C181.072 97.9173 181.106 97.6008 181.337 97.3095C182.283 96.1141 184.614 96.0747 185.982 95.9343V95.9343ZM165.862 86.6319C167.231 86.1037 168.655 87.3398 168.832 88.7328C169.037 90.3381 167.946 91.395 166.564 91.5867L166.495 91.5956C163.444 91.9524 160.416 92.6048 157.361 92.9736C155.974 93.1409 154.576 93.251 153.179 93.2906L152.181 93.3144C150.958 93.3473 149.646 93.3769 148.516 92.9296L148.521 92.9216V92.9216C148.221 92.8293 148.083 92.3701 148.417 92.119C149.619 91.2163 151.24 90.8751 152.639 90.4461C154.046 90.0145 155.464 89.6167 156.885 89.243C159.87 88.4592 162.97 87.7473 165.862 86.6319ZM178.491 87.0071C178.854 84.9762 181.564 84.7584 182.559 86.2362C183.202 86.4706 184.145 86.7153 184.73 86.8993C185.748 87.2199 186.767 87.5385 187.788 87.8473C189.902 88.4868 191.966 89.2975 194.045 90.0531C194.259 90.1312 194.2 90.4198 193.994 90.4485C191.093 90.8495 188.24 91.0361 185.32 90.9075L184.722 90.8789C182.15 90.7725 177.783 90.9755 178.491 87.0071Z" fill="black"/>
<path fill-rule="evenodd" clip-rule="evenodd" d="M182.658 139.013C180.305 136.787 177.667 132.313 174.287 135.853C173.451 136.854 173.113 139.096 171.834 139.536C170.137 140.121 168.454 138.214 167.876 136.749C165.508 128.611 175.294 126.379 180.869 127.694C183.592 128.881 185.598 133.661 185.72 136.156C185.798 137.833 184.461 140.298 182.658 139.013M200.408 126.47C200.385 126.362 200.353 126.264 200.314 126.175C199.274 125.758 198.45 126.183 197.942 126.979C197.958 127.177 198.014 127.377 198.049 127.573C197.656 128.452 197.302 129.538 196.77 130.297C196.665 130.306 196.556 130.294 196.451 130.262C187.631 131.24 191.937 121.441 182.991 119.007C176.076 117.796 163.576 119.183 160.314 126.826C157.741 139.034 144.659 130.527 140.363 124.179C135.78 118.401 132.817 111.34 129.959 104.489C129.355 103.039 127.471 104.076 127.676 105.467C125.035 111.093 125.123 117.85 124.469 124.013C123.356 136.308 122.272 153.551 133.031 161.058C147.049 177.882 182.055 183.819 198.223 168.361C203.82 155.584 203.13 139.997 200.408 126.47" fill="black"/>
</g>
<defs>
<clipPath id="clip0">
<rect width="287" height="330" fill="white"/>
</clipPath>
</defs>
</svg>
