<svg width="90" height="90" viewBox="0 0 90 90" fill="none" xmlns="http://www.w3.org/2000/svg">
<circle cx="45" cy="45" r="45" fill="#FFBD12"/>
<path fill-rule="evenodd" clip-rule="evenodd" d="M21.7005 69.8822C27.7791 75.9607 35.4357 79 44.6704 79C50.2814 79 55.4248 77.7142 60.1005 75.1425C64.8348 72.5123 68.5462 68.947 71.2348 64.4466L57.6458 56.5562C56.4768 58.7772 54.7234 60.5306 52.3855 61.8164C50.106 63.0438 47.5343 63.6575 44.6704 63.6575C39.7608 63.6575 35.7864 62.1379 32.7471 59.0986C29.7663 56.0009 28.2759 51.968 28.2759 47C28.2759 42.032 29.7663 38.0283 32.7471 34.989C35.7864 31.8913 39.7608 30.3425 44.6704 30.3425C47.5343 30.3425 50.106 30.9854 52.3855 32.2712C54.7234 33.4986 56.4768 35.1936 57.6458 37.3562L71.2348 29.5534C68.5462 25.1114 64.8348 21.5753 60.1005 18.9452C55.3663 16.3151 50.2229 15 44.6704 15C35.4357 15 27.7791 18.0685 21.7005 24.2055C15.6805 30.284 12.6704 37.8822 12.6704 47C12.6704 56.1178 15.6805 63.7452 21.7005 69.8822ZM70 54C73.866 54 77 50.866 77 47C77 43.134 73.866 40 70 40C66.134 40 63 43.134 63 47C63 50.866 66.134 54 70 54Z" fill="#18191F"/>
<path fill-rule="evenodd" clip-rule="evenodd" d="M53.3415 63.5732L53.3337 63.5774C50.7328 64.9779 47.8295 65.6575 44.6704 65.6575C39.3124 65.6575 34.8015 63.9814 31.3329 60.5128L31.3193 60.4992L31.306 60.4854C27.9107 56.957 26.2759 52.3985 26.2759 47C26.2759 41.6024 27.9107 37.064 31.3192 33.5886C34.7854 30.0558 39.3009 28.3425 44.6704 28.3425C47.8346 28.3425 50.7414 29.0538 53.3418 30.5145C55.3528 31.5747 57.0163 32.9616 58.2993 34.6747L68.3983 28.8759C66.0211 25.5366 62.9403 22.8108 59.1293 20.6935C54.6999 18.2327 49.892 17 44.6704 17C35.9285 17 28.7966 19.8833 23.1215 25.6129C17.4985 31.2905 14.6704 38.3709 14.6704 47C14.6704 55.6257 17.4966 62.7372 23.1215 68.4747C28.7941 74.144 35.926 77 44.6704 77C49.9607 77 54.7685 75.7916 59.1326 73.3923C62.9493 71.2713 66.0353 68.5172 68.4157 65.1224L58.3156 59.2578C57.0342 61.0202 55.3688 62.4581 53.3493 63.5689L53.3415 63.5732ZM57.1165 57.4676C55.9708 59.2622 54.3938 60.7119 52.3855 61.8164C50.106 63.0438 47.5343 63.6575 44.6704 63.6575C39.7608 63.6575 35.7864 62.1379 32.7471 59.0986C29.7663 56.0009 28.2759 51.968 28.2759 47C28.2759 42.032 29.7663 38.0283 32.7471 34.989C35.7864 31.8913 39.7608 30.3425 44.6704 30.3425C47.5343 30.3425 50.106 30.9854 52.3855 32.2712C54.5239 33.3939 56.1733 34.9078 57.3338 36.8128C57.442 36.9905 57.546 37.1716 57.6458 37.3562L71.2348 29.5534C70.8871 28.979 70.5223 28.4197 70.1404 27.8756C67.5692 24.212 64.2226 21.2352 60.1005 18.9452C55.3663 16.3151 50.2229 15 44.6704 15C35.4357 15 27.7791 18.0685 21.7005 24.2055C15.6805 30.284 12.6704 37.8822 12.6704 47C12.6704 56.1178 15.6805 63.7452 21.7005 69.8822C27.7791 75.9607 35.4357 79 44.6704 79C50.2814 79 55.4248 77.7142 60.1005 75.1425C64.2283 72.8493 67.5785 69.8451 70.1512 66.1301C70.5292 65.5843 70.8904 65.0231 71.2348 64.4466L57.6458 56.5562C57.481 56.8693 57.3046 57.1731 57.1165 57.4676ZM70 52C72.7614 52 75 49.7614 75 47C75 44.2386 72.7614 42 70 42C67.2386 42 65 44.2386 65 47C65 49.7614 67.2386 52 70 52ZM77 47C77 50.866 73.866 54 70 54C66.134 54 63 50.866 63 47C63 43.134 66.134 40 70 40C73.866 40 77 43.134 77 47Z" fill="#18191F"/>
<path fill-rule="evenodd" clip-rule="evenodd" d="M21.7005 67.8822C27.7791 73.9607 35.4357 77 44.6704 77C50.2814 77 55.4248 75.7142 60.1005 73.1425C64.8348 70.5123 68.5462 66.947 71.2348 62.4466L57.6458 54.5562C56.4768 56.7772 54.7234 58.5306 52.3855 59.8164C50.106 61.0438 47.5343 61.6575 44.6704 61.6575C39.7608 61.6575 35.7864 60.1379 32.7471 57.0986C29.7663 54.0009 28.2759 49.968 28.2759 45C28.2759 40.032 29.7663 36.0283 32.7471 32.989C35.7864 29.8913 39.7608 28.3425 44.6704 28.3425C47.5343 28.3425 50.106 28.9854 52.3855 30.2712C54.7234 31.4986 56.4768 33.1936 57.6458 35.3562L71.2348 27.5534C68.5462 23.1114 64.8348 19.5753 60.1005 16.9452C55.3663 14.3151 50.2229 13 44.6704 13C35.4357 13 27.7791 16.0685 21.7005 22.2055C15.6805 28.284 12.6704 35.8822 12.6704 45C12.6704 54.1178 15.6805 61.7452 21.7005 67.8822ZM70 52C73.866 52 77 48.866 77 45C77 41.134 73.866 38 70 38C66.134 38 63 41.134 63 45C63 48.866 66.134 52 70 52Z" fill="white"/>
<path fill-rule="evenodd" clip-rule="evenodd" d="M53.3415 61.5732L53.3337 61.5774C50.7328 62.9779 47.8295 63.6575 44.6704 63.6575C39.3124 63.6575 34.8015 61.9814 31.3329 58.5128L31.3193 58.4992L31.306 58.4854C27.9107 54.957 26.2759 50.3985 26.2759 45C26.2759 39.6024 27.9107 35.064 31.3192 31.5886C34.7854 28.0558 39.3009 26.3425 44.6704 26.3425C47.8346 26.3425 50.7414 27.0538 53.3418 28.5145C55.3528 29.5747 57.0163 30.9616 58.2993 32.6747L68.3983 26.8759C66.0211 23.5366 62.9403 20.8108 59.1293 18.6935C54.6999 16.2327 49.892 15 44.6704 15C35.9285 15 28.7966 17.8833 23.1215 23.6129C17.4985 29.2905 14.6704 36.3709 14.6704 45C14.6704 53.6257 17.4966 60.7372 23.1215 66.4747C28.7941 72.144 35.926 75 44.6704 75C49.9607 75 54.7685 73.7916 59.1326 71.3923C62.9493 69.2713 66.0353 66.5172 68.4157 63.1224L58.3156 57.2578C57.0342 59.0202 55.3688 60.4581 53.3493 61.5689L53.3415 61.5732ZM57.1165 55.4676C55.9708 57.2622 54.3938 58.7119 52.3855 59.8164C50.106 61.0438 47.5343 61.6575 44.6704 61.6575C39.7608 61.6575 35.7864 60.1379 32.7471 57.0986C29.7663 54.0009 28.2759 49.968 28.2759 45C28.2759 40.032 29.7663 36.0283 32.7471 32.989C35.7864 29.8913 39.7608 28.3425 44.6704 28.3425C47.5343 28.3425 50.106 28.9854 52.3855 30.2712C54.5239 31.3939 56.1733 32.9078 57.3338 34.8128C57.442 34.9905 57.546 35.1716 57.6458 35.3562L71.2348 27.5534C70.8871 26.979 70.5223 26.4197 70.1404 25.8756C67.5692 22.212 64.2226 19.2352 60.1005 16.9452C55.3663 14.3151 50.2229 13 44.6704 13C35.4357 13 27.7791 16.0685 21.7005 22.2055C15.6805 28.284 12.6704 35.8822 12.6704 45C12.6704 54.1178 15.6805 61.7452 21.7005 67.8822C27.7791 73.9607 35.4357 77 44.6704 77C50.2814 77 55.4248 75.7142 60.1005 73.1425C64.2283 70.8493 67.5785 67.8451 70.1512 64.1301C70.5292 63.5843 70.8904 63.0231 71.2348 62.4466L57.6458 54.5562C57.481 54.8693 57.3046 55.1731 57.1165 55.4676ZM70 50C72.7614 50 75 47.7614 75 45C75 42.2386 72.7614 40 70 40C67.2386 40 65 42.2386 65 45C65 47.7614 67.2386 50 70 50ZM77 45C77 48.866 73.866 52 70 52C66.134 52 63 48.866 63 45C63 41.134 66.134 38 70 38C73.866 38 77 41.134 77 45Z" fill="#18191F"/>
</svg>
